<svg xmlns="http://www.w3.org/2000/svg" width="100%" height="100%" viewBox="0 0 3067 1880" fill-rule="evenodd" stroke-miterlimit="10"><g transform="matrix(4.16667 0 0 4.16667 -133.332993 -166.666)"><g fill-rule="nonzero"><path d="M524.78 157H154.22c-10.615 0-19.22 8.605-19.22 19.22V431h409V176.22c0-10.616-8.606-19.22-19.22-19.22" fill="#3cb2fd"/><path d="M146 420V176.137a8.14 8.14 0 0 1 8.137-8.137h370.727a8.14 8.14 0 0 1 8.136 8.136V420H146z" fill="#edf5fe"/></g><path d="M591 431H86v9h505z" fill="#1883eb"/><g fill-rule="nonzero"><path d="M383.223 426h-87.446a5.78 5.78 0 0 1-5.777-5.776V420h99v.224a5.78 5.78 0 0 1-5.777 5.776" fill="#0a6ac3"/><path d="M86.337 440h504.337c0 7.732-6.268 14-14 14H100.337c-7.732 0-14-6.268-14-14M65 192.483c-14.603 0-26.483-11.88-26.483-26.483S50.397 139.517 65 139.517 91.483 151.398 91.483 166 79.603 192.483 65 192.483M65 134c-17.673 0-32 14.327-32 32s14.327 32 32 32 32-14.327 32-32-14.327-32-32-32m23 32c0 12.703-10.297 23-23 23s-23-10.297-23-23 10.297-23 23-23 23 10.297 23 23" fill="#3cb2fd"/><path d="M48.374 161.64l29.928-7.838-8.55 28.503-21.377-20.665z" fill="#fff"/><path d="M78.123 153.98L57.1 170.014l1.426 7.838 1.782-4.99 17.814-18.883z" fill="#ebf4ff"/><path d="M60.31 172.864l-1.782 4.988 4.187-2.376-2.405-2.612z" fill="#cfe7ff"/><path d="M312 98.483c-14.603 0-26.483-11.88-26.483-26.483S297.397 45.517 312 45.517 338.483 57.398 338.483 72 326.603 98.483 312 98.483M312 40c-17.673 0-32 14.327-32 32s14.327 32 32 32 32-14.327 32-32-14.327-32-32-32m23 32c0 12.703-10.297 23-23 23s-23-10.297-23-23 10.297-23 23-23 23 10.297 23 23" fill="#3cb2fd"/><path d="M324.155 79h-20.61L299 85V60.845c0-1.57 1.274-2.845 2.845-2.845h22.3c1.57 0 2.845 1.274 2.845 2.845v15.3c0 1.57-1.274 2.845-2.845 2.845" fill="#fff"/><path d="M572 128.483c-14.603 0-26.482-11.88-26.482-26.483S557.397 75.517 572 75.517s26.482 11.88 26.482 26.483-11.88 26.483-26.482 26.483M572 70c-17.673 0-32 14.327-32 32s14.327 32 32 32 32-14.327 32-32-14.327-32-32-32m23 32c0 12.703-10.298 23-23 23s-23-10.297-23-23 10.298-23 23-23 23 10.297 23 23" fill="#3cb2fd"/><path d="M588 99.115C588 92.424 580.837 87 572 87s-16 5.424-16 12.115c0 6.534 6.832 11.86 15.382 12.105.205.007-.657 5.898-.486 5.778 4.647-3.238 10.21-6.583 13.826-11.196 1.415-1.806 3.278-4.222 3.278-6.687" fill="#fff"/><path d="M181.037 310.037L204.697 295h104.727a4.58 4.58 0 0 0 4.576-4.576v-78.848a4.58 4.58 0 0 0-4.576-4.576H185.576a4.58 4.58 0 0 0-4.576 4.576V291" fill="#0a55ab"/><path d="M472 334H312v46.3l10.176-11.3H472v-35z" fill="#fefefe"/><path d="M667.837 188.68c-2.774-8.56 3.217-19.88 13.247-18.133 12.555 2.185 8.63 13.706 9.96 22.573 1.233 8.226 8.772 14.4 13.94 20.304 7.265 8.282 12.547 15.234 9.883 26.704-1.996 8.595-4.66 17.013-7.512 25.357-2.087 6.104-6.365 14.23-5.027 20.917 1.7 8.503 12.158 16.573 17.85 22.438 13.057 13.46 25.576 30.175 20.347 50.086-5.11 19.455-27.89 22.35-44.907 21.77-2.236-.077-4.47-.217-6.702-.404-68.98-5.748-65.148-38.322-57.483-49.818s32.573-24.9 32.573-34.5-3.16-11.63-7.664-32.574c-2.05-9.535.958-23.952 16.287-35.45s-1.736-29.864-4.8-39.28" fill="#1075fd"/></g><path d="M693.667 367.463c4.306-21.625 3.646-44.224-1.916-65.56-2.287-8.774-5.42-17.744-3.938-26.7 1.587-9.58 11.32-24.343 11.492-33.102.36-18.387-20.858-55.518-19.612-70.9" fill="none" stroke="#fff" stroke-width="2"/><g fill="#021867"><path d="M717.376 454h-60.17l-17.332-89h96.357l-18.855 89z" fill-rule="nonzero"/><path d="M768 454H32v37h736z"/></g></g></svg>