<?xml version="1.0" encoding="UTF-8" standalone="no"?>
<!DOCTYPE svg PUBLIC "-//W3C//DTD SVG 1.1//EN" "http://www.w3.org/Graphics/SVG/1.1/DTD/svg11.dtd">
<svg width="100%" height="100%" viewBox="0 0 2076 1004" version="1.1" xmlns="http://www.w3.org/2000/svg" xmlns:xlink="http://www.w3.org/1999/xlink" xml:space="preserve" xmlns:serif="http://www.serif.com/" style="fill-rule:evenodd;clip-rule:evenodd;stroke-linecap:round;stroke-linejoin:round;stroke-miterlimit:10;">
    <g transform="matrix(1,0,0,1,-212.025,-748.001)">
        <g transform="matrix(1,0,0,1,-2.27374e-13,0.000530763)">
            <g transform="matrix(1.96653,0,0,3.53842,214.025,1750)">
                <path d="M0,0L1053.61,0" style="fill:none;stroke:rgb(225,228,229);stroke-width:1.4px;"/>
            </g>
            <g transform="matrix(3.53842,0,0,3.53842,1757.77,678.057)">
                <path d="M0,75.677C15.077,75.677 8.022,51.772 -11.077,57.482C-12.134,24.287 -66.24,0 -88.612,44.771C-94.938,39.766 -109.142,49.22 -105.996,57.482C-113.022,58.08 -118.551,58.893 -122.851,59.969C-132.781,62.454 -130.816,75.566 -120.58,75.474L0,75.677Z" style="fill:white;fill-rule:nonzero;stroke:rgb(225,228,229);stroke-width:1.13px;"/>
            </g>
            <g transform="matrix(3.53842,0,0,3.53842,360.788,852.588)">
                <path d="M0,60.363L121.142,60.363C132.513,60.363 131.991,51 128.276,47.737C124.47,44.394 116.947,45.751 116.947,45.751C116.947,45.751 114.707,39.453 107.336,36.386C100.815,33.675 93.984,34.965 93.984,34.965C93.984,34.965 93.984,30.643 89.81,27.063C85.635,23.484 80.068,23.832 80.068,23.832C80.068,23.832 76.241,0 50.669,0C25.098,0 22.141,22.44 22.141,22.44C22.141,22.44 16.399,22.44 12.225,26.267C8.05,30.094 7.527,34.443 7.527,34.443C7.527,34.443 -6.435,32.562 -10.563,44.606C-13.024,51.785 -7.969,60.363 0,60.363Z" style="fill:white;fill-rule:nonzero;stroke:rgb(225,228,229);stroke-width:1.13px;"/>
            </g>
            <g transform="matrix(-3.53842,0,0,3.53842,3476.2,463.823)">
                <rect x="599.64" y="131.283" width="121.507" height="232.206" style="fill:white;stroke:rgb(225,228,229);stroke-width:1.13px;"/>
            </g>
            <g transform="matrix(-3.53842,0,0,3.53842,3081.07,668.552)">
                <rect x="553.968" y="131.797" width="101.184" height="173.319" style="fill:white;stroke:rgb(225,228,229);stroke-width:1.13px;"/>
            </g>
            <g transform="matrix(-3.53842,0,0,3.53842,3081.08,65.2196)">
                <rect x="545.501" y="299.207" width="118.119" height="9.008" style="fill:white;stroke:rgb(225,228,229);stroke-width:1.13px;"/>
            </g>
            <g transform="matrix(3.53842,0,0,3.53842,763.225,1352.61)">
                <path d="M0,0L99.719,0" style="fill:white;fill-rule:nonzero;stroke:rgb(225,228,229);stroke-width:1.13px;"/>
            </g>
            <g transform="matrix(3.53842,0,0,3.53842,770.312,1557.19)">
                <path d="M0,0L98.358,0" style="fill:white;fill-rule:nonzero;stroke:rgb(225,228,229);stroke-width:1.13px;"/>
            </g>
            <g transform="matrix(-3.53842,0,0,3.53842,2881.73,700.911)">
                <rect x="569.417" y="198.782" width="13.949" height="30.204" style="fill:white;stroke:rgb(225,228,229);stroke-width:1.13px;"/>
            </g>
            <g transform="matrix(-3.53842,0,0,3.53842,3087.74,700.911)">
                <rect x="598.528" y="198.782" width="13.949" height="30.204" style="fill:white;stroke:rgb(225,228,229);stroke-width:1.13px;"/>
            </g>
            <g transform="matrix(-3.53842,0,0,3.53842,3294.38,700.911)">
                <rect x="627.727" y="198.782" width="13.949" height="30.204" style="fill:white;stroke:rgb(225,228,229);stroke-width:1.13px;"/>
            </g>
            <g transform="matrix(-3.53842,0,0,3.53842,2881.73,301.473)">
                <rect x="569.417" y="255.225" width="13.949" height="30.204" style="fill:white;stroke:rgb(225,228,229);stroke-width:1.13px;"/>
            </g>
            <g transform="matrix(-3.53842,0,0,3.53842,3087.74,301.473)">
                <rect x="598.528" y="255.225" width="13.949" height="30.204" style="fill:white;stroke:rgb(225,228,229);stroke-width:1.13px;"/>
            </g>
            <g transform="matrix(-3.53842,0,0,3.53842,3294.38,301.473)">
                <rect x="627.727" y="255.225" width="13.949" height="30.204" style="fill:white;stroke:rgb(225,228,229);stroke-width:1.13px;"/>
            </g>
            <g transform="matrix(-3.53842,0,0,3.53842,2881.73,1100.04)">
                <rect x="569.417" y="142.382" width="13.949" height="30.204" style="fill:white;stroke:rgb(225,228,229);stroke-width:1.13px;"/>
            </g>
            <g transform="matrix(-3.53842,0,0,3.53842,3087.74,1139.32)">
                <rect x="598.528" y="131.283" width="13.949" height="41.303" style="fill:white;stroke:rgb(225,228,229);stroke-width:1.13px;"/>
            </g>
            <g transform="matrix(-3.53842,0,0,3.53842,3294.38,1100.04)">
                <rect x="627.727" y="142.382" width="13.949" height="30.204" style="fill:white;stroke:rgb(225,228,229);stroke-width:1.13px;"/>
            </g>
            <g transform="matrix(-3.53842,0,0,3.53842,4140.54,551.345)">
                <rect x="694.066" y="131.895" width="120.407" height="206.247" style="fill:white;stroke:rgb(225,228,229);stroke-width:1.13px;"/>
            </g>
            <g transform="matrix(-3.53842,0,0,3.53842,4140.54,1244.03)">
                <rect x="694.066" y="131.895" width="120.407" height="10.487" style="fill:white;stroke:rgb(225,228,229);stroke-width:1.13px;"/>
            </g>
            <g transform="matrix(-3.53842,0,0,3.53842,4140.53,-171.412)">
                <rect x="683.989" y="332.469" width="140.559" height="9.359" style="fill:white;stroke:rgb(225,228,229);stroke-width:1.13px;"/>
            </g>
            <g transform="matrix(3.53842,0,0,3.53842,1267.45,1557.19)">
                <path d="M0,0L118.663,0" style="fill:white;fill-rule:nonzero;stroke:rgb(225,228,229);stroke-width:1.13px;"/>
            </g>
            <g transform="matrix(-3.53842,0,0,3.53842,4148.46,1139.32)">
                <rect x="747.089" y="131.283" width="16.599" height="41.303" style="fill:white;stroke:rgb(225,228,229);stroke-width:1.13px;"/>
            </g>
            <g transform="matrix(-3.53842,0,0,3.53842,4393.69,1146.37)">
                <rect x="781.741" y="143.031" width="16.6" height="15.813" style="fill:white;stroke:rgb(225,228,229);stroke-width:1.13px;"/>
            </g>
            <g transform="matrix(-3.53842,0,0,3.53842,3907.65,1146.37)">
                <rect x="713.061" y="143.031" width="16.6" height="15.813" style="fill:white;stroke:rgb(225,228,229);stroke-width:1.13px;"/>
            </g>
            <g transform="matrix(-3.53842,0,0,3.53842,4393.69,737.615)">
                <rect x="781.741" y="200.791" width="16.6" height="15.813" style="fill:white;stroke:rgb(225,228,229);stroke-width:1.13px;"/>
            </g>
            <g transform="matrix(-3.53842,0,0,3.53842,3907.65,737.615)">
                <rect x="713.061" y="200.791" width="16.6" height="15.813" style="fill:white;stroke:rgb(225,228,229);stroke-width:1.13px;"/>
            </g>
            <g transform="matrix(-3.53842,0,0,3.53842,4148.46,737.615)">
                <rect x="747.089" y="200.791" width="16.599" height="15.813" style="fill:white;stroke:rgb(225,228,229);stroke-width:1.13px;"/>
            </g>
            <g transform="matrix(-3.53842,0,0,3.53842,4393.69,505.02)">
                <rect x="781.741" y="233.658" width="16.6" height="15.813" style="fill:white;stroke:rgb(225,228,229);stroke-width:1.13px;"/>
            </g>
            <g transform="matrix(-3.53842,0,0,3.53842,3907.65,505.02)">
                <rect x="713.061" y="233.658" width="16.6" height="15.813" style="fill:white;stroke:rgb(225,228,229);stroke-width:1.13px;"/>
            </g>
            <g transform="matrix(-3.53842,0,0,3.53842,4148.46,505.02)">
                <rect x="747.089" y="233.658" width="16.599" height="15.813" style="fill:white;stroke:rgb(225,228,229);stroke-width:1.13px;"/>
            </g>
            <g transform="matrix(-3.53842,0,0,3.53842,4393.69,285.575)">
                <rect x="781.741" y="264.667" width="16.6" height="15.813" style="fill:white;stroke:rgb(225,228,229);stroke-width:1.13px;"/>
            </g>
            <g transform="matrix(-3.53842,0,0,3.53842,3907.65,285.575)">
                <rect x="713.061" y="264.667" width="16.6" height="15.813" style="fill:white;stroke:rgb(225,228,229);stroke-width:1.13px;"/>
            </g>
            <g transform="matrix(-3.53842,0,0,3.53842,4148.46,285.575)">
                <rect x="747.089" y="264.667" width="16.599" height="15.813" style="fill:white;stroke:rgb(225,228,229);stroke-width:1.13px;"/>
            </g>
            <g transform="matrix(-3.53842,0,0,3.53842,4393.69,52.9873)">
                <rect x="781.741" y="297.533" width="16.6" height="15.813" style="fill:white;stroke:rgb(225,228,229);stroke-width:1.13px;"/>
            </g>
            <g transform="matrix(-3.53842,0,0,3.53842,3907.65,52.9873)">
                <rect x="713.061" y="297.533" width="16.6" height="15.813" style="fill:white;stroke:rgb(225,228,229);stroke-width:1.13px;"/>
            </g>
            <g transform="matrix(-3.53842,0,0,3.53842,4148.46,52.9873)">
                <rect x="747.089" y="297.533" width="16.599" height="15.813" style="fill:white;stroke:rgb(225,228,229);stroke-width:1.13px;"/>
            </g>
            <g transform="matrix(3.53842,0,0,3.53842,777.841,839.553)">
                <path d="M0,0L16,0" style="fill:white;fill-rule:nonzero;stroke:rgb(225,228,229);stroke-width:1.13px;"/>
            </g>
            <g transform="matrix(3.53842,0,0,3.53842,1899.44,874.938)">
                <path d="M0,0L14,0" style="fill:white;fill-rule:nonzero;stroke:rgb(225,228,229);stroke-width:1.13px;"/>
            </g>
            <g transform="matrix(3.53842,0,0,3.53842,1062.6,874.938)">
                <path d="M0,0L23,0" style="fill:white;fill-rule:nonzero;stroke:rgb(225,228,229);stroke-width:1.13px;"/>
            </g>
            <g transform="matrix(3.53842,0,0,3.53842,1251.99,811.246)">
                <path d="M0,-2L0,0L12,0" style="fill:white;fill-rule:nonzero;stroke:rgb(225,228,229);stroke-width:1.13px;"/>
            </g>
            <g transform="matrix(1,0,0,1,1919.07,1506.56)">
                <path d="M0,96.995C0,145.379 -31.959,188.885 -71.383,188.885C-110.807,188.885 -142.767,145.379 -142.767,96.995C-142.767,48.611 -93.69,-91.89 -71.383,-91.89C-49.076,-91.89 0,48.611 0,96.995" style="fill:white;fill-rule:nonzero;"/>
            </g>
            <g transform="matrix(0,-1,-1,0,1896.19,1483.68)">
                <path d="M-119.881,-22.886C-168.265,-22.886 -211.771,9.073 -211.771,48.497C-211.771,87.921 -168.265,119.881 -119.881,119.881C-71.497,119.881 69.004,70.804 69.004,48.497C69.004,26.19 -71.497,-22.886 -119.881,-22.886Z" style="fill:none;stroke:rgb(225,228,229);stroke-width:4px;"/>
            </g>
            <g transform="matrix(1,0,0,1,1847.74,1749.5)">
                <path d="M0,-266.566L-0.1,-266.566C-2.825,-266.566 -5.035,-264.356 -5.035,-261.63L-5.035,0L4.936,0L4.936,-261.63C4.936,-264.356 2.726,-266.566 0,-266.566Z" style="fill:white;fill-rule:nonzero;stroke:rgb(225,228,229);stroke-width:4px;"/>
            </g>
            <g transform="matrix(1,0,0,1,1849.65,1600.96)">
                <path d="M0,49.818L40.841,8.977C42.768,7.05 42.768,3.925 40.841,1.998L40.77,1.927C38.843,0 35.718,0 33.79,1.927L0.681,35.195" style="fill:white;fill-rule:nonzero;stroke:rgb(225,228,229);stroke-width:4px;"/>
            </g>
            <g transform="matrix(1,0,0,1,1845.99,1571.64)">
                <path d="M0,35.748L-26.402,8.977C-28.33,7.05 -28.33,3.925 -26.402,1.998L-26.332,1.927C-24.405,0 -21.28,0 -19.353,1.927L-0.68,21.125" style="fill:white;fill-rule:nonzero;stroke:rgb(225,228,229);stroke-width:4px;"/>
            </g>
            <g transform="matrix(1,0,0,1,1850.05,1508.46)">
                <path d="M0,35.748L26.403,8.977C28.331,7.051 28.331,3.926 26.403,1.998L26.333,1.928C24.405,0 21.28,0 19.353,1.928L-0.596,22.401" style="fill:white;fill-rule:nonzero;stroke:rgb(225,228,229);stroke-width:4px;"/>
            </g>
            <g transform="matrix(1,0,0,1,2048.4,1647.42)">
                <path d="M0,32.59C0,60.647 -22.744,83.391 -50.801,83.391C-78.858,83.391 -101.603,60.647 -101.603,32.59C-101.603,4.533 -78.858,-50.801 -50.801,-50.801C-22.744,-50.801 0,4.533 0,32.59" style="fill:white;fill-rule:nonzero;"/>
            </g>
            <g transform="matrix(0,-1,-1,0,2013.9,1612.92)">
                <path d="M-67.097,-34.506C-95.154,-34.506 -117.898,-11.762 -117.898,16.295C-117.898,44.352 -95.154,67.097 -67.097,67.097C-39.04,67.097 16.294,44.352 16.294,16.295C16.294,-11.762 -39.04,-34.506 -67.097,-34.506Z" style="fill:none;stroke:rgb(225,228,229);stroke-width:4px;"/>
            </g>
            <g transform="matrix(1,0,0,1,2013.18,1718.18)">
                <path d="M0,-68.862L-0.041,-68.903C-1.156,-70.018 -2.831,-70.018 -3.946,-68.903L-12.203,-60.277L-12.203,-97.612C-12.203,-99.189 -13.749,-100.431 -15.327,-100.431L-15.385,-100.431C-16.962,-100.431 -18.203,-99.189 -18.203,-97.612L-18.203,-35.352L-34.725,-51.933C-35.84,-53.049 -37.658,-53.049 -38.773,-51.933L-38.819,-51.893C-39.935,-50.777 -39.918,-48.969 -38.802,-47.853L-18.203,-27.271L-18.203,31.569L-12.203,31.569L-12.203,-52.178L0.134,-64.823C1.249,-65.938 1.115,-67.747 0,-68.862Z" style="fill:white;fill-rule:nonzero;stroke:rgb(225,228,229);stroke-width:4px;"/>
            </g>
            <g transform="matrix(1,0,0,1,553.329,1628.45)">
                <path d="M0,37.548C0,69.874 26.205,96.079 58.53,96.079C90.856,96.079 117.062,69.874 117.062,37.548C117.062,5.222 90.856,-58.531 58.53,-58.531C26.205,-58.531 0,5.222 0,37.548" style="fill:white;fill-rule:nonzero;"/>
            </g>
            <g transform="matrix(0,1,1,0,593.086,1588.69)">
                <path d="M77.305,-39.757C109.631,-39.757 135.836,-13.552 135.836,18.773C135.836,51.099 109.631,77.305 77.305,77.305C44.979,77.305 -18.774,51.099 -18.774,18.773C-18.774,-13.552 44.979,-39.757 77.305,-39.757Z" style="fill:none;stroke:rgb(225,228,229);stroke-width:4px;"/>
            </g>
            <g transform="matrix(1,0,0,1,638.811,1672.84)">
                <path d="M0,1.072L-0.047,1.025C-1.332,-0.26 -3.322,-0.26 -4.607,1.025L-23.695,20.299L-23.695,-47.97L-6.751,-65.032C-5.466,-66.318 -5.513,-68.402 -6.798,-69.687L-6.868,-69.734C-8.153,-71.019 -10.154,-71.019 -11.439,-69.734L-23.695,-57.287L-23.695,-72.032C-23.695,-73.85 -25.355,-75.464 -27.173,-75.464L-27.239,-75.464C-29.057,-75.464 -30.695,-73.85 -30.695,-72.032L-30.695,-28.843L-40.448,-38.955C-41.733,-40.24 -43.775,-40.24 -45.061,-38.955L-45.087,-38.907C-46.372,-37.622 -46.444,-35.539 -45.159,-34.254L-30.695,-19.516L-30.695,76.536L-23.695,76.536L-23.695,29.609L0.094,5.726C1.379,4.441 1.285,2.357 0,1.072Z" style="fill:white;fill-rule:nonzero;stroke:rgb(225,228,229);stroke-width:4px;"/>
            </g>
            <g transform="matrix(1,0,0,1,594.864,1519.09)">
                <path d="M0,73.076C0,137.412 -42.496,163.815 -94.918,163.815C-147.34,163.815 -189.837,137.412 -189.837,73.076C-189.837,8.74 -124.58,-90.739 -94.918,-90.739C-65.256,-90.739 0,8.74 0,73.076" style="fill:white;fill-rule:nonzero;"/>
            </g>
            <g transform="matrix(0,-1,-1,0,536.483,1460.71)">
                <path d="M-131.457,-58.381C-195.793,-58.381 -222.196,-15.885 -222.196,36.537C-222.196,88.959 -195.793,131.457 -131.457,131.457C-67.121,131.457 32.358,66.199 32.358,36.537C32.358,6.875 -67.121,-58.381 -131.457,-58.381Z" style="fill:none;stroke:rgb(225,228,229);stroke-width:4px;"/>
            </g>
            <g transform="matrix(1,0,0,1,500.012,1749.64)">
                <path d="M0,-227.401L-0.133,-227.401C-3.758,-227.401 -6.695,-224.463 -6.695,-220.839L-6.695,0L6.562,0L6.562,-220.839C6.562,-224.463 3.624,-227.401 0,-227.401Z" style="fill:white;fill-rule:nonzero;stroke:rgb(225,228,229);stroke-width:4px;"/>
            </g>
            <g transform="matrix(1,0,0,1,502.548,1601.38)">
                <path d="M0,66.243L54.305,11.938C56.868,9.375 56.868,5.22 54.305,2.657L54.211,2.563C51.648,0 47.493,0 44.931,2.563L0.904,46.799" style="fill:white;fill-rule:nonzero;stroke:rgb(225,228,229);stroke-width:4px;"/>
            </g>
            <g transform="matrix(1,0,0,1,497.09,1543.69)">
                <path d="M0,66.242L-54.306,11.937C-56.868,9.375 -56.868,5.22 -54.306,2.656L-54.212,2.562C-51.648,0 -47.493,0 -44.931,2.562L-0.905,46.798" style="fill:white;fill-rule:nonzero;stroke:rgb(225,228,229);stroke-width:4px;"/>
            </g>
        </g>
    </g>
</svg>
