<?xml version="1.0" encoding="UTF-8" standalone="no"?>
<!DOCTYPE svg PUBLIC "-//W3C//DTD SVG 1.1//EN" "http://www.w3.org/Graphics/SVG/1.1/DTD/svg11.dtd">
<svg width="100%" height="100%" viewBox="0 0 799 992" version="1.1" xmlns="http://www.w3.org/2000/svg" xmlns:xlink="http://www.w3.org/1999/xlink" xml:space="preserve" xmlns:serif="http://www.serif.com/" style="fill-rule:evenodd;clip-rule:evenodd;stroke-linecap:round;stroke-linejoin:round;stroke-miterlimit:10;">
    <g transform="matrix(1,0,0,1,-850.571,-754.205)">
        <g>
            <g transform="matrix(2.66919,0,0,2.66919,1541.71,1110.43)">
                <path d="M0,-0.487C0.138,72.637 -57.54,132.024 -128.826,132.159C-200.112,132.293 -258.013,73.123 -258.15,-0.001C-258.288,-73.125 -200.61,-132.512 -129.324,-132.647C-58.038,-132.78 -0.138,-73.611 0,-0.487" style="fill:none;"/>
            </g>
            <g transform="matrix(-0.00502508,-2.66919,-2.66919,0.00502508,1195.88,765.255)">
                <ellipse cx="-129.075" cy="-0.243" rx="132.403" ry="129.076" style="fill:none;stroke:rgb(50,56,84);stroke-width:1.5px;"/>
            </g>
            <g transform="matrix(2.66919,0,0,2.66919,936.845,1209.89)">
                <path d="M0,193.354C-0.63,195.29 0.429,197.369 2.364,198L3.141,198.252C5.076,198.882 7.156,197.824 7.786,195.889L66.728,0C67.357,-1.936 66.299,-4.016 64.363,-4.646L63.587,-4.898C61.651,-5.528 59.571,-4.47 58.941,-2.535L0,193.354Z" style="fill:white;fill-rule:nonzero;stroke:rgb(225,228,229);stroke-width:1.5px;"/>
            </g>
            <g transform="matrix(2.66919,0,0,2.66919,952.954,1209.86)">
                <path d="M0,193.355C-0.631,195.29 0.428,197.37 2.363,198.001L3.14,198.253C5.075,198.883 7.155,197.825 7.785,195.89L66.727,0.001C67.356,-1.935 66.298,-4.015 64.362,-4.645L63.586,-4.897C61.65,-5.528 59.57,-4.469 58.94,-2.534L0,193.355Z" style="fill:white;fill-rule:nonzero;stroke:rgb(225,228,229);stroke-width:1.5px;"/>
            </g>
            <g transform="matrix(2.66919,0,0,2.66919,1069.35,1743.71)">
                <path d="M0,0L14.479,0" style="fill:none;stroke:rgb(225,228,229);stroke-width:1.5px;"/>
            </g>
            <g transform="matrix(2.66919,0,0,2.66919,1500.03,1209.5)">
                <path d="M0,193.103C0.638,195.036 -0.413,197.12 -2.346,197.757L-3.121,198.013C-5.055,198.651 -7.139,197.6 -7.776,195.667L-65.945,-0.001C-66.583,-1.934 -65.532,-4.018 -63.6,-4.655L-62.824,-4.911C-60.891,-5.548 -58.807,-4.498 -58.17,-2.565L0,193.103Z" style="fill:rgb(119,116,113);fill-rule:nonzero;stroke:rgb(50,56,84);stroke-width:1.5px;"/>
            </g>
            <g transform="matrix(2.66919,0,0,2.66919,1516.14,1209.46)">
                <path d="M0,193.105C0.638,195.038 -0.412,197.122 -2.346,197.759L-3.121,198.015C-5.055,198.652 -7.139,197.602 -7.775,195.669L-65.945,0.001C-66.583,-1.932 -65.532,-4.016 -63.6,-4.653L-62.823,-4.909C-60.891,-5.547 -58.807,-4.497 -58.169,-2.563L0,193.105Z" style="fill:white;fill-rule:nonzero;stroke:rgb(225,228,229);stroke-width:0.78px;"/>
            </g>
            <g transform="matrix(2.66919,0,0,2.66919,1541.37,1712.89)">
                <path d="M0,11.189C-1.175,4.822 -6.75,0 -13.455,0.013C-20.161,0.025 -25.719,4.817 -26.869,11.189L0,11.189Z" style="fill:rgb(239,239,239);fill-rule:nonzero;stroke:rgb(50,56,84);stroke-width:1.5px;"/>
            </g>
            <g transform="matrix(2.66919,0,0,2.66919,1180.53,1202.91)">
                <path d="M0,169.654C0.003,171.69 -1.644,173.342 -3.679,173.346L-4.496,173.348C-6.531,173.352 -8.185,171.705 -8.188,169.669L9.595,0C9.591,-2.035 11.238,-3.688 13.273,-3.692L14.091,-3.694C16.126,-3.698 17.779,-2.051 17.783,-0.015L0,169.654Z" style="fill:rgb(119,116,113);fill-rule:nonzero;stroke:rgb(50,56,84);stroke-width:1.5px;"/>
            </g>
            <g transform="matrix(2.66919,0,0,2.66919,1196.63,1202.88)">
                <path d="M0,169.654C0.004,171.689 -1.644,173.342 -3.679,173.346L-4.496,173.348C-6.531,173.352 -8.185,171.705 -8.188,169.669L9.595,0C9.591,-2.035 11.238,-3.689 13.273,-3.693L14.091,-3.694C16.126,-3.698 17.779,-2.051 17.783,-0.015L0,169.654Z" style="fill:white;fill-rule:nonzero;stroke:rgb(225,228,229);stroke-width:0.78px;"/>
            </g>
            <g transform="matrix(2.66919,0,0,2.66919,1219.05,1639.68)">
                <path d="M0,11.189C-1.175,4.821 -6.75,0 -13.455,0.012C-20.161,0.025 -25.719,4.817 -26.869,11.189L0,11.189Z" style="fill:rgb(239,239,239);fill-rule:nonzero;stroke:rgb(50,56,84);stroke-width:1.5px;"/>
            </g>
            <g transform="matrix(2.66919,0,0,2.66919,1594.05,1110.36)">
                <path d="M0,-0.499C0.138,72.625 -59.029,132.015 -132.153,132.153C-205.277,132.291 -264.667,73.124 -264.805,0C-264.942,-73.124 -205.775,-132.514 -132.652,-132.652C-59.528,-132.79 -0.138,-73.623 0,-0.499" style="fill:white;fill-rule:nonzero;"/>
            </g>
            <g transform="matrix(2.66919,0,0,2.66919,1594.05,1110.36)">
                <path d="M0,-0.499C0.138,72.625 -59.029,132.015 -132.153,132.153C-205.277,132.291 -264.667,73.124 -264.805,0C-264.942,-73.124 -205.775,-132.514 -132.652,-132.652C-59.528,-132.79 -0.138,-73.623 0,-0.499" style="fill:white;fill-rule:nonzero;"/>
            </g>
            <g transform="matrix(2.66919,0,0,2.66919,1257.56,900.784)">
                <path d="M0,200.814C-72.594,200.95 -131.554,142.212 -131.69,69.619C-131.746,39.712 -121.803,12.125 -105.022,-9.994C-126.042,13.492 -138.804,44.518 -138.739,78.517C-138.602,151.641 -79.212,210.808 -6.088,210.67C45.407,210.573 89.979,181.09 111.794,138.12C88.713,175.657 47.301,200.725 0,200.814" style="fill:rgb(239,239,239);fill-rule:nonzero;"/>
            </g>
            <g transform="matrix(-0.00502983,-2.66919,-2.66919,0.00502983,1239.32,756.292)">
                <ellipse cx="-132.402" cy="-0.249" rx="132.403" ry="132.403" style="fill:none;stroke:rgb(50,56,84);stroke-width:1.5px;"/>
            </g>
            <g transform="matrix(2.66919,0,0,2.66919,1499.44,1110.18)">
                <path d="M0,-0.365C0.102,53.182 -43.226,96.672 -96.772,96.773C-150.32,96.874 -193.811,53.547 -193.911,0C-194.012,-53.547 -150.685,-97.037 -97.138,-97.138C-43.591,-97.239 -0.101,-53.912 0,-0.365" style="fill:rgb(225,228,229);fill-rule:nonzero;"/>
            </g>
            <g transform="matrix(-0.00502423,-2.66919,-2.66919,0.00502423,1239.67,850.906)">
                <ellipse cx="-96.955" cy="-0.182" rx="96.956" ry="96.957" style="fill:none;stroke:rgb(50,56,84);stroke-width:1.5px;"/>
            </g>
            <g transform="matrix(2.66919,0,0,2.66919,1419.77,1110.03)">
                <path d="M0,-0.252C0.069,36.81 -29.919,66.911 -66.98,66.98C-104.042,67.05 -134.144,37.062 -134.213,0.001C-134.283,-37.061 -104.295,-67.162 -67.233,-67.232C-30.171,-67.302 -0.07,-37.314 0,-0.252" style="fill:white;fill-rule:nonzero;"/>
            </g>
            <g transform="matrix(-0.00503159,-2.66919,-2.66919,0.00503159,1239.97,930.575)">
                <ellipse cx="-67.107" cy="-0.126" rx="67.107" ry="67.107" style="fill:none;stroke:rgb(50,56,84);stroke-width:1.5px;"/>
            </g>
            <g transform="matrix(2.66919,0,0,2.66919,1329.59,1109.86)">
                <path d="M0,-0.126C0.035,18.277 -14.855,33.224 -33.259,33.259C-51.662,33.293 -66.608,18.403 -66.644,-0.001C-66.678,-18.403 -51.787,-33.35 -33.385,-33.385C-14.981,-33.419 -0.034,-18.529 0,-0.126" style="fill:rgb(255,97,97);fill-rule:nonzero;"/>
            </g>
            <g transform="matrix(-0.00500643,-2.66919,-2.66919,0.00500643,1240.31,1020.76)">
                <ellipse cx="-33.321" cy="-0.063" rx="33.322" ry="33.322" style="fill:none;stroke:rgb(50,56,84);stroke-width:1.5px;"/>
            </g>
            <g transform="matrix(2.66919,0,0,2.66919,1497.24,1280.44)">
                <path d="M0,-0.008C-0.002,-1.167 -0.943,-2.105 -2.103,-2.103C-3.262,-2.101 -4.199,-1.159 -4.197,0C-4.195,1.159 -3.254,2.097 -2.095,2.095C-0.936,2.093 0.003,1.151 0,-0.008" style="fill:rgb(68,74,84);fill-rule:nonzero;"/>
            </g>
            <g transform="matrix(2.66919,0,0,2.66919,932.659,1064.5)">
                <path d="M0,-0.008C-0.003,-1.167 -0.944,-2.105 -2.104,-2.103C-3.263,-2.101 -4.2,-1.159 -4.198,0C-4.196,1.159 -3.255,2.097 -2.096,2.095C-0.937,2.093 0.002,1.151 0,-0.008" style="fill:rgb(68,74,84);fill-rule:nonzero;"/>
            </g>
            <g transform="matrix(2.66919,0,0,2.66919,1017.19,1121.34)">
                <path d="M0,-0.008C-0.003,-1.167 -0.944,-2.105 -2.104,-2.103C-3.263,-2.1 -4.2,-1.159 -4.198,0C-4.196,1.159 -3.255,2.097 -2.096,2.095C-0.937,2.093 0.002,1.151 0,-0.008" style="fill:rgb(68,74,84);fill-rule:nonzero;"/>
            </g>
            <g transform="matrix(2.66919,0,0,2.66919,1504.54,1314.58)">
                <path d="M0,-0.008C-0.002,-1.167 -0.943,-2.105 -2.103,-2.103C-3.262,-2.101 -4.199,-1.159 -4.197,0C-4.195,1.159 -3.254,2.097 -2.095,2.095C-0.936,2.093 0.003,1.151 0,-0.008" style="fill:rgb(68,74,84);fill-rule:nonzero;"/>
            </g>
            <g transform="matrix(2.66919,0,0,2.66919,1397.55,1373.82)">
                <path d="M0,-0.008C-0.002,-1.167 -0.943,-2.105 -2.103,-2.103C-3.262,-2.101 -4.199,-1.159 -4.197,0C-4.195,1.159 -3.254,2.097 -2.095,2.095C-0.936,2.093 0.002,1.151 0,-0.008" style="fill:rgb(68,74,84);fill-rule:nonzero;"/>
            </g>
            <g transform="matrix(2.66919,0,0,2.66919,1466.01,1109.29)">
                <path d="M0,-0.008C-0.002,-1.167 -0.943,-2.105 -2.103,-2.103C-3.262,-2.101 -4.199,-1.159 -4.197,0C-4.195,1.159 -3.254,2.097 -2.095,2.095C-0.936,2.093 0.003,1.151 0,-0.008" style="fill:rgb(68,74,84);fill-rule:nonzero;"/>
            </g>
            <g transform="matrix(2.66919,0,0,2.66919,1369.31,1177.93)">
                <path d="M0,-0.008C-0.002,-1.167 -0.943,-2.105 -2.103,-2.103C-3.262,-2.101 -4.2,-1.159 -4.197,0C-4.195,1.159 -3.254,2.097 -2.095,2.095C-0.936,2.093 0.002,1.151 0,-0.008" style="fill:rgb(68,74,84);fill-rule:nonzero;"/>
            </g>
            <g transform="matrix(2.66919,0,0,2.66919,1128.57,930.809)">
                <path d="M0,-0.008C-0.002,-1.167 -0.943,-2.105 -2.103,-2.103C-3.262,-2.101 -4.199,-1.159 -4.197,0C-4.195,1.159 -3.254,2.097 -2.095,2.095C-0.936,2.093 0.003,1.151 0,-0.008" style="fill:rgb(68,74,84);fill-rule:nonzero;"/>
            </g>
            <g transform="matrix(2.66919,0,0,2.66919,1398.24,844.183)">
                <path d="M0,61.199L-20.772,62.417L-21.382,41.181L18.313,-1.218L18.693,19.804L39.694,18.8L26.292,33.116L4.774,34.672L-2.443,42.381L18.043,41.927L0,61.199Z" style="fill:white;fill-rule:nonzero;stroke:rgb(50,56,84);stroke-width:1.5px;"/>
            </g>
            <g transform="matrix(-1.82424,1.94852,1.94852,1.82424,1377.02,1167.4)">
                <path d="M-114.779,-49.773L21.583,-49.773" style="fill:none;stroke:rgb(50,56,84);stroke-width:1.5px;"/>
            </g>
            <g transform="matrix(-0.0168275,2.66914,2.66914,0.0168275,1393.17,958.271)">
                <path d="M-10.854,-10.786L10.718,-10.786" style="fill:none;stroke:rgb(50,56,84);stroke-width:1.5px;"/>
            </g>
            <g transform="matrix(0.188728,2.66251,2.66251,-0.188728,1456.13,884.336)">
                <path d="M-9.279,-9.96L10.691,-9.96" style="fill:none;stroke:rgb(50,56,84);stroke-width:1.5px;"/>
            </g>
            <g transform="matrix(2.66919,0,0,2.66919,1141.08,950.489)">
                <path d="M0,61.199L-20.771,62.417L-21.381,41.181L18.313,-1.218L18.694,19.804L39.695,18.8L0,61.199Z" style="fill:white;fill-rule:nonzero;stroke:rgb(50,56,84);stroke-width:1.5px;"/>
            </g>
            <g transform="matrix(-1.82423,1.94853,1.94853,1.82423,1119.85,1273.7)">
                <path d="M-114.778,-49.773L21.583,-49.773" style="fill:none;stroke:rgb(50,56,84);stroke-width:1.5px;"/>
            </g>
            <g transform="matrix(-0.0167038,2.66914,2.66914,0.0167038,1136.01,1064.57)">
                <path d="M-10.854,-10.786L10.719,-10.786" style="fill:none;stroke:rgb(50,56,84);stroke-width:1.5px;"/>
            </g>
            <g transform="matrix(0.188595,2.66252,2.66252,-0.188595,1198.96,990.643)">
                <path d="M-9.279,-9.96L10.69,-9.96" style="fill:none;stroke:rgb(50,56,84);stroke-width:1.5px;"/>
            </g>
            <g transform="matrix(-0.0783867,2.66804,2.66804,0.0783867,1224.04,970.348)">
                <path d="M-5.696,-5.531L5.371,-5.531" style="fill:none;stroke:rgb(50,56,84);stroke-width:1.5px;"/>
            </g>
            <g transform="matrix(2.6511,-0.310295,-0.310295,-2.6511,1136.55,1065.61)">
                <path d="M-0.077,1.319L22.607,1.319" style="fill:none;stroke:rgb(50,56,84);stroke-width:1.5px;"/>
            </g>
            <g transform="matrix(2.66615,-0.127467,-0.127467,-2.66615,1068.56,1134.83)">
                <path d="M-0.006,0.251L10.506,0.251" style="fill:none;stroke:rgb(50,56,84);stroke-width:1.5px;"/>
            </g>
            <g transform="matrix(2.66919,0,0,2.66919,1541.4,1005.19)">
                <path d="M0,61.198L-20.772,62.416L-21.382,41.18L18.312,-1.218L18.693,19.803L39.694,18.8L0,61.198Z" style="fill:none;stroke:rgb(225,228,229);stroke-width:1.5px;"/>
            </g>
            <g transform="matrix(-1.82423,1.94853,1.94853,1.82423,1520.17,1328.4)">
                <path d="M-114.778,-49.773L21.583,-49.773" style="fill:none;stroke:rgb(225,228,229);stroke-width:1.5px;"/>
            </g>
            <g transform="matrix(-0.0167038,2.66914,2.66914,0.0167038,1536.32,1119.28)">
                <path d="M-10.854,-10.786L10.719,-10.786" style="fill:none;stroke:rgb(225,228,229);stroke-width:1.5px;"/>
            </g>
            <g transform="matrix(-0.0167038,2.66914,2.66914,0.0167038,1557.33,1097.53)">
                <path d="M-10.854,-10.786L10.719,-10.786" style="fill:none;stroke:rgb(225,228,229);stroke-width:1.5px;"/>
            </g>
            <g transform="matrix(2.6511,-0.310295,-0.310295,-2.6511,1536.86,1120.31)">
                <path d="M-0.077,1.319L22.607,1.319" style="fill:none;stroke:rgb(225,228,229);stroke-width:1.5px;"/>
            </g>
            <g transform="matrix(0.00521479,2.66919,2.66919,-0.00521479,997.151,1220.88)">
                <path d="M-5.109,-5.118L5.129,-5.118" style="fill:none;stroke:rgb(225,228,229);stroke-width:1.5px;"/>
            </g>
            <g transform="matrix(0.00521479,2.66919,2.66919,-0.00521479,1397.47,1275.58)">
                <path d="M-5.109,-5.118L5.129,-5.118" style="fill:none;stroke:rgb(225,228,229);stroke-width:1.5px;"/>
            </g>
            <g transform="matrix(0.00521479,2.66919,2.66919,-0.00521479,1254.32,1114.58)">
                <path d="M-5.109,-5.118L5.129,-5.118" style="fill:none;stroke:rgb(225,228,229);stroke-width:1.5px;"/>
            </g>
            <g transform="matrix(2.66919,0,0,2.66919,1541.71,1110.43)">
                <path d="M0,-0.487C0.138,72.637 -57.54,132.024 -128.826,132.159C-200.112,132.293 -258.013,73.123 -258.15,-0.001C-258.288,-73.125 -200.61,-132.512 -129.324,-132.647C-58.038,-132.78 -0.138,-73.611 0,-0.487" style="fill:none;stroke:rgb(225,228,229);stroke-width:1.56px;stroke-linecap:butt;stroke-miterlimit:1.41421;"/>
            </g>
            <g transform="matrix(-0.00502508,-2.66919,-2.66919,0.00502508,1195.88,765.255)">
                <ellipse cx="-129.075" cy="-0.243" rx="132.403" ry="129.076" style="fill:white;stroke:rgb(225,228,229);stroke-width:1.5px;"/>
            </g>
            <g transform="matrix(2.66919,0,0,2.66919,936.845,1209.89)">
                <path d="M0,193.354C-0.63,195.29 0.429,197.369 2.364,198L3.141,198.252C5.076,198.882 7.156,197.824 7.786,195.889L66.728,0C67.357,-1.936 66.299,-4.016 64.363,-4.646L63.587,-4.898C61.651,-5.528 59.571,-4.47 58.941,-2.535L0,193.354Z" style="fill:none;stroke:rgb(225,228,229);stroke-width:1.5px;"/>
            </g>
            <g transform="matrix(2.66919,0,0,2.66919,952.954,1209.86)">
                <path d="M0,193.355C-0.631,195.29 0.428,197.37 2.363,198.001L3.14,198.253C5.075,198.883 7.155,197.825 7.785,195.89L66.727,0.001C67.356,-1.935 66.298,-4.015 64.362,-4.645L63.586,-4.897C61.65,-5.528 59.57,-4.469 58.94,-2.534L0,193.355Z" style="fill:white;fill-rule:nonzero;"/>
            </g>
            <g transform="matrix(2.66919,0,0,2.66919,1500.03,1209.5)">
                <path d="M0,193.103C0.638,195.036 -0.413,197.12 -2.346,197.757L-3.121,198.013C-5.055,198.651 -7.139,197.6 -7.776,195.667L-65.945,-0.001C-66.583,-1.934 -65.532,-4.018 -63.6,-4.655L-62.824,-4.911C-60.891,-5.548 -58.807,-4.498 -58.17,-2.565L0,193.103Z" style="fill:white;fill-rule:nonzero;stroke:rgb(225,228,229);stroke-width:1.5px;"/>
            </g>
            <g transform="matrix(2.66919,0,0,2.66919,1516.14,1209.46)">
                <path d="M0,193.105C0.638,195.038 -0.412,197.122 -2.346,197.759L-3.121,198.015C-5.055,198.652 -7.139,197.602 -7.775,195.669L-65.945,0.001C-66.583,-1.932 -65.532,-4.016 -63.6,-4.653L-62.823,-4.909C-60.891,-5.547 -58.807,-4.497 -58.169,-2.563L0,193.105Z" style="fill:white;fill-rule:nonzero;stroke:rgb(225,228,229);stroke-width:0.78px;stroke-linecap:butt;stroke-miterlimit:1.41421;"/>
            </g>
            <g transform="matrix(2.66919,0,0,2.66919,1541.37,1712.89)">
                <path d="M0,11.189C-1.175,4.822 -6.75,0 -13.455,0.013C-20.161,0.025 -25.719,4.817 -26.869,11.189L0,11.189Z" style="fill:white;fill-rule:nonzero;"/>
            </g>
            <g transform="matrix(2.66919,0,0,2.66919,1435.23,1742.76)">
                <path d="M0,0L58.428,0" style="fill:none;stroke:rgb(225,228,229);stroke-width:1.5px;"/>
            </g>
            <g transform="matrix(2.66919,0,0,2.66919,1180.53,1202.91)">
                <path d="M0,169.654C0.003,171.69 -1.644,173.342 -3.679,173.346L-4.496,173.348C-6.531,173.352 -8.185,171.705 -8.188,169.669L9.595,0C9.591,-2.035 11.238,-3.688 13.273,-3.692L14.091,-3.694C16.126,-3.698 17.779,-2.051 17.783,-0.015L0,169.654Z" style="fill:white;fill-rule:nonzero;stroke:rgb(225,228,229);stroke-width:1.5px;"/>
            </g>
            <g transform="matrix(2.66919,0,0,2.66919,1196.63,1202.88)">
                <path d="M0,169.654C0.004,171.689 -1.644,173.342 -3.679,173.346L-4.496,173.348C-6.531,173.352 -8.185,171.705 -8.188,169.669L9.595,0C9.591,-2.035 11.238,-3.689 13.273,-3.693L14.091,-3.694C16.126,-3.698 17.779,-2.051 17.783,-0.015L0,169.654Z" style="fill:white;fill-rule:nonzero;stroke:rgb(225,228,229);stroke-width:0.78px;stroke-linecap:butt;stroke-miterlimit:1.41421;"/>
            </g>
            <g transform="matrix(2.66919,0,0,2.66919,1219.05,1639.68)">
                <path d="M0,11.189C-1.175,4.821 -6.75,0 -13.455,0.012C-20.161,0.025 -25.719,4.817 -26.869,11.189L0,11.189Z" style="fill:white;fill-rule:nonzero;"/>
            </g>
            <g transform="matrix(2.66919,0,0,2.66919,1101.92,1669.54)">
                <path d="M0,0L58.341,0" style="fill:none;stroke:rgb(225,228,229);stroke-width:1.5px;"/>
            </g>
            <g transform="matrix(2.66919,0,0,2.66919,1594.05,1110.36)">
                <path d="M0,-0.499C0.138,72.625 -59.029,132.015 -132.153,132.153C-205.277,132.291 -264.667,73.124 -264.805,0C-264.942,-73.124 -205.775,-132.514 -132.652,-132.652C-59.528,-132.79 -0.138,-73.623 0,-0.499" style="fill:none;stroke:rgb(225,228,229);stroke-width:1.56px;stroke-linecap:butt;stroke-miterlimit:1.41421;"/>
            </g>
            <g transform="matrix(2.66919,0,0,2.66919,1583.27,1056.99)">
                <path d="M0,-0.42C0.116,61.153 -49.704,111.162 -111.277,111.277C-172.85,111.393 -222.858,61.573 -222.975,0C-223.09,-61.573 -173.27,-111.582 -111.696,-111.697C-50.124,-111.813 -0.115,-61.993 0,-0.42" style="fill:white;fill-rule:nonzero;"/>
            </g>
            <g transform="matrix(2.66919,0,0,2.66919,1257.56,900.784)">
                <path d="M0,200.814C-72.594,200.95 -131.554,142.212 -131.69,69.619C-131.746,39.712 -121.803,12.125 -105.022,-9.994C-126.042,13.492 -138.804,44.518 -138.739,78.517C-138.602,151.641 -79.212,210.808 -6.088,210.67C45.407,210.573 89.979,181.09 111.794,138.12C88.713,175.657 47.301,200.725 0,200.814" style="fill:none;"/>
            </g>
            <g transform="matrix(-0.00502983,-2.66919,-2.66919,0.00502983,1239.32,756.292)">
                <ellipse cx="-132.402" cy="-0.249" rx="132.403" ry="132.403" style="fill:white;stroke:rgb(225,228,229);stroke-width:1.5px;"/>
            </g>
            <g transform="matrix(2.66919,0,0,2.66919,1499.44,1110.18)">
                <path d="M0,-0.365C0.102,53.182 -43.226,96.672 -96.772,96.773C-150.32,96.874 -193.811,53.547 -193.911,0C-194.012,-53.547 -150.685,-97.037 -97.138,-97.138C-43.591,-97.239 -0.101,-53.912 0,-0.365" style="fill:none;"/>
            </g>
            <g transform="matrix(443.086,-437.748,-437.748,-443.086,1110.57,1238.21)">
                <g transform="matrix(0.00114213,-0.00112837,-0.00112837,-0.00114213,0.249188,0.846164)">
                </g>
            </g>
            <g transform="matrix(2.66919,0,0,2.66919,1382.78,1366.46)">
                <path d="M0,-41.417C-13.302,-28.066 -26.6,-14.711 -39.904,-1.363C-40.31,-0.908 -40.717,-0.454 -41.125,0C-35.611,-0.689 -30.247,-1.855 -25.061,-3.429L-0.121,-28.369C0.191,-32.703 0.096,-37.063 0,-41.417" style="fill:none;"/>
            </g>
            <g transform="matrix(-0.00502423,-2.66919,-2.66919,0.00502423,1239.67,850.906)">
                <ellipse cx="-96.955" cy="-0.182" rx="96.956" ry="96.957" style="fill:white;stroke:rgb(225,228,229);stroke-width:1.5px;"/>
            </g>
            <g transform="matrix(2.66919,0,0,2.66919,1419.77,1110.03)">
                <path d="M0,-0.252C0.069,36.81 -29.919,66.911 -66.98,66.98C-104.042,67.05 -134.144,37.062 -134.213,0.001C-134.283,-37.061 -104.295,-67.162 -67.233,-67.232C-30.171,-67.302 -0.07,-37.314 0,-0.252" style="fill:white;fill-rule:nonzero;"/>
            </g>
            <g transform="matrix(-0.00503159,-2.66919,-2.66919,0.00503159,1239.97,930.575)">
                <ellipse cx="-67.107" cy="-0.126" rx="67.107" ry="67.107" style="fill:none;stroke:rgb(225,228,229);stroke-width:1.5px;"/>
            </g>
            <g transform="matrix(2.66919,0,0,2.66919,1329.59,1109.86)">
                <path d="M0,-0.126C0.035,18.277 -14.855,33.224 -33.259,33.259C-51.662,33.293 -66.608,18.403 -66.644,-0.001C-66.678,-18.403 -51.787,-33.35 -33.385,-33.385C-14.981,-33.419 -0.034,-18.529 0,-0.126" style="fill:none;"/>
            </g>
            <g transform="matrix(-0.00500643,-2.66919,-2.66919,0.00500643,1240.31,1020.76)">
                <ellipse cx="-33.321" cy="-0.063" rx="33.322" ry="33.322" style="fill:none;"/>
            </g>
            <g transform="matrix(117.445,-186.844,-186.844,-117.445,1215.23,1150.13)">
                <g transform="matrix(0.00241141,-0.00383633,-0.00383633,-0.00241141,0.639552,2.35369)">
                </g>
            </g>
            <g transform="matrix(2.66919,0,0,2.66919,1236.26,1184.11)">
                <path d="M0,-30.936L-24.59,-7.346C-22.346,-4.483 -19.642,-2 -16.593,0C-9.405,-7.188 -2.218,-14.376 4.971,-21.563C2.063,-23.75 2.307,-28.145 0,-30.936" style="fill:none;"/>
            </g>
            <g transform="matrix(-0.00500643,-2.66919,-2.66919,0.00500643,1240.31,1020.76)">
                <ellipse cx="-33.321" cy="-0.063" rx="33.322" ry="33.322" style="fill:none;stroke:rgb(225,228,229);stroke-width:1.25px;"/>
            </g>
            <g transform="matrix(2.66919,0,0,2.66919,1497.24,1280.44)">
                <path d="M0,-0.008C-0.002,-1.167 -0.943,-2.105 -2.103,-2.103C-3.262,-2.101 -4.199,-1.159 -4.197,0C-4.195,1.159 -3.254,2.097 -2.095,2.095C-0.936,2.093 0.003,1.151 0,-0.008" style="fill:rgb(225,228,229);fill-rule:nonzero;"/>
            </g>
            <g transform="matrix(2.66919,0,0,2.66919,932.659,1064.5)">
                <path d="M0,-0.008C-0.003,-1.167 -0.944,-2.105 -2.104,-2.103C-3.263,-2.101 -4.2,-1.159 -4.198,0C-4.196,1.159 -3.255,2.097 -2.096,2.095C-0.937,2.093 0.002,1.151 0,-0.008" style="fill:rgb(225,228,229);fill-rule:nonzero;"/>
            </g>
            <g transform="matrix(2.66919,0,0,2.66919,1017.19,1121.34)">
                <path d="M0,-0.008C-0.003,-1.167 -0.944,-2.105 -2.104,-2.103C-3.263,-2.1 -4.2,-1.159 -4.198,0C-4.196,1.159 -3.255,2.097 -2.096,2.095C-0.937,2.093 0.002,1.151 0,-0.008" style="fill:rgb(225,228,229);fill-rule:nonzero;"/>
            </g>
            <g transform="matrix(2.66919,0,0,2.66919,1504.54,1314.58)">
                <path d="M0,-0.008C-0.002,-1.167 -0.943,-2.105 -2.103,-2.103C-3.262,-2.101 -4.199,-1.159 -4.197,0C-4.195,1.159 -3.254,2.097 -2.095,2.095C-0.936,2.093 0.003,1.151 0,-0.008" style="fill:rgb(225,228,229);fill-rule:nonzero;"/>
            </g>
            <g transform="matrix(2.66919,0,0,2.66919,1397.55,1373.82)">
                <path d="M0,-0.008C-0.002,-1.167 -0.943,-2.105 -2.103,-2.103C-3.262,-2.101 -4.199,-1.159 -4.197,0C-4.195,1.159 -3.254,2.097 -2.095,2.095C-0.936,2.093 0.002,1.151 0,-0.008" style="fill:rgb(225,228,229);fill-rule:nonzero;"/>
            </g>
            <g transform="matrix(2.66919,0,0,2.66919,1466.01,1109.29)">
                <path d="M0,-0.008C-0.002,-1.167 -0.943,-2.105 -2.103,-2.103C-3.262,-2.101 -4.199,-1.159 -4.197,0C-4.195,1.159 -3.254,2.097 -2.095,2.095C-0.936,2.093 0.003,1.151 0,-0.008" style="fill:rgb(225,228,229);fill-rule:nonzero;"/>
            </g>
            <g transform="matrix(2.66919,0,0,2.66919,1369.31,1177.93)">
                <path d="M0,-0.008C-0.002,-1.167 -0.943,-2.105 -2.103,-2.103C-3.262,-2.101 -4.2,-1.159 -4.197,0C-4.195,1.159 -3.254,2.097 -2.095,2.095C-0.936,2.093 0.002,1.151 0,-0.008" style="fill:rgb(225,228,229);fill-rule:nonzero;"/>
            </g>
            <g transform="matrix(2.66919,0,0,2.66919,1128.57,930.809)">
                <path d="M0,-0.008C-0.002,-1.167 -0.943,-2.105 -2.103,-2.103C-3.262,-2.101 -4.199,-1.159 -4.197,0C-4.195,1.159 -3.254,2.097 -2.095,2.095C-0.936,2.093 0.003,1.151 0,-0.008" style="fill:rgb(225,228,229);fill-rule:nonzero;"/>
            </g>
            <g transform="matrix(2.66919,0,0,2.66919,1398.24,844.183)">
                <path d="M0,61.199L-20.772,62.417L-21.382,41.181L18.313,-1.218L18.693,19.804L39.694,18.8L26.292,33.116L4.774,34.672L-2.443,42.381L18.043,41.927L0,61.199Z" style="fill:white;fill-rule:nonzero;stroke:rgb(225,228,229);stroke-width:1.56px;stroke-linecap:butt;stroke-miterlimit:1.41421;"/>
            </g>
            <g transform="matrix(-1.82424,1.94852,1.94852,1.82424,1377.02,1167.4)">
                <path d="M-114.779,-49.773L21.583,-49.773" style="fill:none;stroke:rgb(225,228,229);stroke-width:1.5px;"/>
            </g>
            <g transform="matrix(-0.0168275,2.66914,2.66914,0.0168275,1393.17,958.271)">
                <path d="M-10.854,-10.786L10.718,-10.786" style="fill:none;stroke:rgb(225,228,229);stroke-width:1.5px;"/>
            </g>
            <g transform="matrix(0.188728,2.66251,2.66251,-0.188728,1456.13,884.336)">
                <path d="M-9.279,-9.96L10.691,-9.96" style="fill:none;stroke:rgb(225,228,229);stroke-width:1.5px;"/>
            </g>
            <g transform="matrix(2.66919,0,0,2.66919,1141.08,950.489)">
                <path d="M0,61.199L-20.771,62.417L-21.381,41.181L18.313,-1.218L18.694,19.804L39.695,18.8L0,61.199Z" style="fill:white;fill-rule:nonzero;stroke:rgb(225,228,229);stroke-width:1.56px;stroke-linecap:butt;stroke-miterlimit:1.41421;"/>
            </g>
            <g transform="matrix(-1.82423,1.94853,1.94853,1.82423,1119.85,1273.7)">
                <path d="M-114.778,-49.773L21.583,-49.773" style="fill:none;stroke:rgb(225,228,229);stroke-width:1.5px;"/>
            </g>
            <g transform="matrix(-0.0167038,2.66914,2.66914,0.0167038,1136.01,1064.57)">
                <path d="M-10.854,-10.786L10.719,-10.786" style="fill:none;stroke:rgb(225,228,229);stroke-width:1.5px;"/>
            </g>
            <g transform="matrix(0.188595,2.66252,2.66252,-0.188595,1198.96,990.643)">
                <path d="M-9.279,-9.96L10.69,-9.96" style="fill:none;stroke:rgb(225,228,229);stroke-width:1.5px;"/>
            </g>
            <g transform="matrix(-0.0783867,2.66804,2.66804,0.0783867,1224.04,970.348)">
                <path d="M-5.696,-5.531L5.371,-5.531" style="fill:none;stroke:rgb(225,228,229);stroke-width:1.5px;"/>
            </g>
            <g transform="matrix(2.6511,-0.310295,-0.310295,-2.6511,1136.55,1065.61)">
                <path d="M-0.077,1.319L22.607,1.319" style="fill:none;stroke:rgb(225,228,229);stroke-width:1.5px;"/>
            </g>
            <g transform="matrix(2.66615,-0.127467,-0.127467,-2.66615,1068.56,1134.83)">
                <path d="M-0.006,0.251L10.506,0.251" style="fill:none;stroke:rgb(225,228,229);stroke-width:1.5px;"/>
            </g>
            <g transform="matrix(2.66919,0,0,2.66919,1541.4,1005.19)">
                <path d="M0,61.198L-20.772,62.416L-21.382,41.18L18.312,-1.218L18.693,19.803L39.694,18.8L0,61.198Z" style="fill:white;fill-rule:nonzero;stroke:rgb(225,228,229);stroke-width:1.56px;stroke-linecap:butt;stroke-miterlimit:1.41421;"/>
            </g>
            <g transform="matrix(-1.82423,1.94853,1.94853,1.82423,1520.17,1328.4)">
                <path d="M-114.778,-49.773L21.583,-49.773" style="fill:none;stroke:rgb(225,228,229);stroke-width:1.5px;"/>
            </g>
            <g transform="matrix(-0.0167038,2.66914,2.66914,0.0167038,1536.32,1119.28)">
                <path d="M-10.854,-10.786L10.719,-10.786" style="fill:none;stroke:rgb(225,228,229);stroke-width:1.5px;"/>
            </g>
            <g transform="matrix(-0.0167038,2.66914,2.66914,0.0167038,1557.33,1097.53)">
                <path d="M-10.854,-10.786L10.719,-10.786" style="fill:none;stroke:rgb(225,228,229);stroke-width:1.5px;"/>
            </g>
            <g transform="matrix(2.6511,-0.310295,-0.310295,-2.6511,1536.86,1120.31)">
                <path d="M-0.077,1.319L22.607,1.319" style="fill:none;stroke:rgb(225,228,229);stroke-width:1.5px;"/>
            </g>
            <g transform="matrix(0.00521479,2.66919,2.66919,-0.00521479,997.151,1220.88)">
                <path d="M-5.109,-5.118L5.129,-5.118" style="fill:none;stroke:rgb(225,228,229);stroke-width:1.5px;"/>
            </g>
            <g transform="matrix(0.00521479,2.66919,2.66919,-0.00521479,1397.47,1275.58)">
                <path d="M-5.109,-5.118L5.129,-5.118" style="fill:none;stroke:rgb(225,228,229);stroke-width:1.5px;"/>
            </g>
            <g transform="matrix(0.00521479,2.66919,2.66919,-0.00521479,1254.32,1114.58)">
                <path d="M-5.109,-5.118L5.129,-5.118" style="fill:none;stroke:rgb(225,228,229);stroke-width:1.5px;"/>
            </g>
            <g transform="matrix(2.66919,0,0,2.66919,991.105,1713.93)">
                <path d="M0,11.158C-1.175,4.79 -6.75,0 -13.455,0.013C-20.161,0.026 -25.719,4.786 -26.869,11.158L0,11.158Z" style="fill:white;fill-rule:nonzero;"/>
            </g>
            <g transform="matrix(2.66919,0,0,2.66919,1541.37,1712.89)">
                <path d="M0,11.189C-1.175,4.822 -6.75,0 -13.455,0.013C-20.161,0.025 -25.719,4.817 -26.869,11.189L0,11.189Z" style="fill:none;stroke:rgb(225,228,229);stroke-width:1.5px;"/>
            </g>
            <g transform="matrix(2.66919,0,0,2.66919,1219.05,1639.68)">
                <path d="M0,11.189C-1.175,4.821 -6.75,0 -13.455,0.012C-20.161,0.025 -25.719,4.817 -26.869,11.189L0,11.189Z" style="fill:none;stroke:rgb(225,228,229);stroke-width:1.5px;"/>
            </g>
            <g transform="matrix(2.66919,0,0,2.66919,991.105,1713.93)">
                <path d="M0,11.158C-1.175,4.79 -6.75,0 -13.455,0.013C-20.161,0.026 -25.719,4.786 -26.869,11.158L0,11.158Z" style="fill:white;fill-rule:nonzero;stroke:rgb(225,228,229);stroke-width:1.5px;"/>
            </g>
            <g transform="matrix(2.66919,0,0,2.66919,879.953,1743.71)">
                <path d="M0,0L58.429,0" style="fill:none;stroke:rgb(225,228,229);stroke-width:1.5px;"/>
            </g>
        </g>
    </g>
</svg>
