<svg xmlns="http://www.w3.org/2000/svg" xmlns:xlink="http://www.w3.org/1999/xlink" width="100%" height="100%" viewBox="0 0 1180 1426" fill-rule="evenodd" stroke-miterlimit="10"><style><![CDATA[.B{fill-rule:nonzero}.C{fill:#9a5720}.D{fill:#322c73}.E{fill:#fcdfdc}.F{fill:#06038b}.G{fill:#eef6ff}.H{stroke-linecap:round}]]></style><g transform="matrix(4.16667,0,0,4.16667,-154.207,-1179.17)"><path d="M75 536.923h216" fill="none" stroke="#d3dfea" stroke-width="2"/><clipPath id="A"><path d="M104.13 363.008h166.147v173.17H104.13z"/></clipPath><g clip-path="url(#A)"><path d="M270.277 363.008H104.13v173.17h166.147z" class="G"/><g fill="#dde9f2" class="B"><use xlink:href="#C"/><use xlink:href="#D"/><use xlink:href="#E"/><use xlink:href="#E" x="-3.135" y="-3.102"/><use xlink:href="#F"/><use xlink:href="#G"/><use xlink:href="#H"/><use xlink:href="#I"/><use xlink:href="#J"/><use xlink:href="#K"/><use xlink:href="#D" x="-12.987" y="-6.203"/><use xlink:href="#L"/><use xlink:href="#L" x="-3.134" y="-3.103"/><use xlink:href="#M"/><use xlink:href="#N"/><use xlink:href="#O"/><use xlink:href="#C" x="-19.257" y="-6.203"/><use xlink:href="#H" x="-6.268" y="7.755"/><use xlink:href="#E" x="-5.374" y="15.507"/><use xlink:href="#F" x="-2.24" y="18.62"/><use xlink:href="#G" x="-19.257" y="-6.203"/><use xlink:href="#M" x="-12.987" y="-6.202"/><use xlink:href="#P"/><path d="M252.804 533.937c-.658.852-1.79.926-2.528.166s-.803-2.068-.144-2.92 1.79-.926 2.53-.166.802 2.067.143 2.92"/><use xlink:href="#H" x="-19.256" y="1.551"/><use xlink:href="#L" x="-22.391" y="-9.305"/><use xlink:href="#C" x="-21.495" y="12.406"/><use xlink:href="#D" x="-21.496" y="12.406"/><use xlink:href="#E" x="-21.496" y="12.406"/><use xlink:href="#I" x="-21.495" y="12.416"/><use xlink:href="#Q"/><use xlink:href="#N" x="-21.496" y="12.416"/><use xlink:href="#R"/><use xlink:href="#M" x="-10.747" y="-24.812"/><use xlink:href="#S"/><use xlink:href="#F" x="-12.987" y="-13.947"/><use xlink:href="#C" x="-30.005" y="-31.017"/><use xlink:href="#M" x="-23.735" y="-38.77"/><use xlink:href="#T"/><use xlink:href="#U"/><use xlink:href="#V"/><use xlink:href="#V" x="-3.136" y="-3.101"/><use xlink:href="#W"/><use xlink:href="#H" x="-17.018" y="-17.058"/><use xlink:href="#Q" x="8.509" y="-26.364"/><use xlink:href="#F" x="-12.987" y="-6.193"/><use xlink:href="#G" x="-30.005" y="-31.015"/><use xlink:href="#X"/><use xlink:href="#X" x="-3.135" y="-3.102"/><use xlink:href="#Y"/><use xlink:href="#Z"/><use xlink:href="#Z" x="-3.135" y="-3.1"/><use xlink:href="#a"/><use xlink:href="#b"/><use xlink:href="#M" x="-12.987" y="-13.957"/><use xlink:href="#P" x="-10.75" y="-24.813"/><use xlink:href="#U" x="10.748" y="24.813"/><use xlink:href="#L" x="-30.004" y="-31.016"/><use xlink:href="#L" x="-33.138" y="-34.118"/><use xlink:href="#c"/><use xlink:href="#d"/><use xlink:href="#e"/><use xlink:href="#f"/><use xlink:href="#T" x="-16.123" y="-3.1"/><use xlink:href="#T" x="-19.257" y="-6.202"/><use xlink:href="#I" x="-19.255" y="-6.204"/><path d="M242.056 516.362c-.658.852-1.79.926-2.528.165s-.803-2.067-.144-2.92 1.79-.927 2.53-.166.802 2.067.143 2.92"/><use xlink:href="#C" x="-32.245" y="-12.407"/><use xlink:href="#D" x="-32.244" y="-12.406"/><use xlink:href="#a" x="10.748" y="24.813"/><use xlink:href="#a" x="7.614" y="21.712"/><use xlink:href="#F" x="-32.244" y="-12.396"/><use xlink:href="#R" x="-32.244" y="-12.405"/><use xlink:href="#M" x="-42.99" y="-37.219"/><use xlink:href="#S" x="-32.244" y="-12.405"/><use xlink:href="#g"/><use xlink:href="#c" x="10.748" y="24.814"/><use xlink:href="#G" x="-32.243" y="-12.406"/><use xlink:href="#h"/><use xlink:href="#J" x="-29.11" y="-9.305"/><use xlink:href="#Q" x="-10.747" y="-24.812"/><use xlink:href="#K" x="-32.244" y="-12.406"/><use xlink:href="#i"/><use xlink:href="#i" x="-3.135" y="-3.102"/><use xlink:href="#L" x="-52.396" y="-40.321"/><use xlink:href="#G" x="-59.113" y="-40.32"/><use xlink:href="#G" x="-62.249" y="-43.423"/><use xlink:href="#E" x="-24.631" y="9.304"/><use xlink:href="#F" x="-21.496" y="12.416"/><use xlink:href="#R" x="-21.496" y="12.407"/><use xlink:href="#M" x="-32.243" y="-12.407"/><use xlink:href="#N" x="-32.244" y="-12.407"/><use xlink:href="#C" x="-48.365" y="-15.507"/><use xlink:href="#C" x="-51.501" y="-18.609"/><use xlink:href="#R" x="-38.514" y="-4.652"/><use xlink:href="#a" x="-8.509" y="18.61"/><use xlink:href="#d" x="-19.256" y="1.552"/><use xlink:href="#V" x="-21.496" y="12.407"/><use xlink:href="#K" x="-21.496" y="12.406"/><use xlink:href="#R" x="-21.496" y="20.16"/><use xlink:href="#H" x="-38.513" y="-4.652"/><use xlink:href="#Q" x="-12.987" y="-13.957"/><use xlink:href="#F" x="-34.483" y="6.213"/><use xlink:href="#G" x="-51.501" y="-18.609"/><use xlink:href="#I" x="-48.365" y="-15.508"/><use xlink:href="#X" x="-24.631" y="9.304"/><use xlink:href="#Q" x="-30.005" y="-31.016"/><path d="M206.677 500.337c-.658.853-1.79.927-2.53.166s-.802-2.067-.143-2.92 1.79-.926 2.528-.165.803 2.067.144 2.92"/><use xlink:href="#R" x="-51.501" y="-10.855"/><use xlink:href="#h" x="-2.239" y="18.608"/><use xlink:href="#C" x="-40.753" y="6.203"/><use xlink:href="#P" x="-29.11" y="-9.306"/><use xlink:href="#P" x="-32.245" y="-12.406"/><use xlink:href="#O" x="-35.378" y="-1.552"/><use xlink:href="#L" x="-51.501" y="-18.61"/><use xlink:href="#L" x="-54.635" y="-21.711"/><use xlink:href="#c" x="-21.496" y="12.406"/><use xlink:href="#d" x="-21.495" y="12.406"/><use xlink:href="#e" x="-21.496" y="12.407"/><use xlink:href="#C" x="-70.758" y="-24.812"/><use xlink:href="#G" x="-40.753" y="6.203"/><use xlink:href="#M" x="-34.483" y="6.203"/><use xlink:href="#I" x="-40.752" y="6.203"/><path d="M220.56 528.77c-.658.852-1.79.926-2.528.165s-.803-2.067-.144-2.92 1.79-.927 2.53-.166.802 2.067.143 2.92"/><use xlink:href="#C" x="-53.74"/><use xlink:href="#R" x="-40.753" y="13.958"/><use xlink:href="#H" x="-57.77" y="-10.855"/><use xlink:href="#O" x="-48.365" y="-7.754"/><use xlink:href="#F" x="-53.73"/><use xlink:href="#D" x="-67.623" y="-13.958"/><use xlink:href="#M" x="-64.488" y="-24.812"/><use xlink:href="#L" x="-43.888" y="3.101"/><use xlink:href="#c" x="-10.748" y="37.219"/><use xlink:href="#G" x="-53.74"/><use xlink:href="#h" x="-21.486" y="12.405"/><use xlink:href="#J" x="-50.605" y="3.102"/><use xlink:href="#Q" x="-32.244" y="-12.407"/><use xlink:href="#P" x="-51.5" y="-18.61"/><use xlink:href="#H" x="-67.622" y="-13.957"/><use xlink:href="#H" x="-70.758" y="-17.058"/><use xlink:href="#j"/><use xlink:href="#F" x="-42.992" y="24.823"/><use xlink:href="#M" x="-50.605" y="3.101"/><use xlink:href="#M" x="-53.74"/><use xlink:href="#N" x="-53.74"/><use xlink:href="#k"/><use xlink:href="#C" x="-72.997" y="-6.203"/><use xlink:href="#R" x="-60.01" y="7.755"/><use xlink:href="#E" x="-72.998" y="-6.203"/><use xlink:href="#H" x="-60.008" y="7.755"/><use xlink:href="#j" x="10.748" y="24.812"/><use xlink:href="#F" x="-55.98" y="18.62"/><use xlink:href="#D" x="-69.862" y="4.652"/><use xlink:href="#h" x="-40.753" y="6.202"/><path d="M191.45 519.98c-.66.853-1.792.927-2.53.166s-.803-2.067-.144-2.92 1.79-.926 2.53-.166.802 2.068.144 2.92"/><use xlink:href="#Q" x="-51.501" y="-18.61"/><use xlink:href="#P" x="-53.74"/><use xlink:href="#O" x="-56.874" y="10.855"/><use xlink:href="#L" x="-72.998" y="-6.203"/><use xlink:href="#J" x="-69.862" y="4.653"/><use xlink:href="#c" x="-42.992" y="24.814"/><path d="M185.18 519.98c-.658.852-1.79.926-2.53.166s-.802-2.068-.143-2.92 1.79-.926 2.528-.166.803 2.067.144 2.92"/><use xlink:href="#k" x="-5.373" y="15.508"/><use xlink:href="#R" x="-62.249" y="26.364"/><use xlink:href="#H" x="-79.266" y="1.551"/><use xlink:href="#O" x="-69.86" y="4.652"/><use xlink:href="#F" x="-75.236" y="12.416"/><use xlink:href="#L" x="-79.266" y="1.55"/><use xlink:href="#Q" x="-53.74"/><path d="M182.942 531.352c-.66.853-1.792.927-2.53.166s-.802-2.067-.143-2.92 1.79-.926 2.53-.165.802 2.067.144 2.92"/><use xlink:href="#l"/><path d="M182.942 538.6c-.66.852-1.792.926-2.53.166s-.802-2.068-.143-2.92 1.79-.926 2.53-.166.802 2.067.144 2.92"/><use xlink:href="#F" x="-77.923" y="23.272"/><path d="M176.225 531.87c-.66.852-1.792.926-2.53.165s-.803-2.067-.144-2.92 1.8-.927 2.53-.166.803 2.067.144 2.92m.447 7.237c-.66.853-1.792.927-2.53.166s-.803-2.067-.144-2.92 1.8-.926 2.53-.165.803 2.067.144 2.92"/><use xlink:href="#l" x="-5.822" y="7.754"/><path d="M170.402 539.624c-.66.852-1.79.926-2.53.165s-.803-2.067-.143-2.92 1.79-.927 2.528-.166.803 2.067.144 2.92"/><use xlink:href="#R" x="18.361" y="-15.507"/><use xlink:href="#e" x="48.366" y="7.754"/><use xlink:href="#Q" x="30.005" y="-38.77"/><use xlink:href="#C" x="2.239" y="-18.609"/><use xlink:href="#M" x="8.51" y="-26.364"/><use xlink:href="#X" x="29.11" y="1.55"/><use xlink:href="#H" x="2.24" y="-18.609"/><use xlink:href="#X" x="29.11" y="9.304"/><use xlink:href="#j" x="69.862" y="-4.652"/><use xlink:href="#C" y="-7.754"/><use xlink:href="#L" x="-0.895" y="-21.711"/><use xlink:href="#P" x="8.508" y="-26.364"/><use xlink:href="#d" x="32.245" y="12.406"/><use xlink:href="#a" x="50.604" y="-72.886"/><use xlink:href="#f" x="50.607" y="-72.887"/><path d="M268.926 411.942c-.658.852-1.79.926-2.528.166s-.803-2.067-.144-2.92 1.79-.926 2.528-.165.803 2.067.144 2.92"/><use xlink:href="#m"/><use xlink:href="#S" x="21.496" y="-82.19"/><use xlink:href="#e" x="40.752" y="-75.988"/><use xlink:href="#i" x="50.605" y="-72.887"/><use xlink:href="#b" x="51.502" y="-51.176"/><use xlink:href="#n"/><use xlink:href="#o"/><use xlink:href="#g" x="61.354" y="-48.074"/><use xlink:href="#b" x="51.502" y="-43.422"/><path d="M266.688 430.552c-.66.852-1.792.926-2.53.166s-.803-2.067-.144-2.92 1.79-.926 2.53-.165.802 2.067.144 2.92"/><use xlink:href="#U" x="32.244" y="-57.378"/><use xlink:href="#i" x="37.618" y="-79.09"/><use xlink:href="#m" x="-2.24" y="18.609"/><use xlink:href="#X" x="29.11" y="-60.48"/><use xlink:href="#p"/><use xlink:href="#g" x="48.367" y="-54.278"/><path d="M256.835 427.45c-.66.852-1.79.926-2.53.166s-.803-2.067-.144-2.92 1.79-.926 2.53-.165.802 2.067.144 2.92"/><use xlink:href="#i" x="48.366" y="-54.278"/><use xlink:href="#V" x="39.857" y="-35.668"/><path d="M264 441.407c-.66.852-1.79.926-2.53.166s-.802-2.067-.144-2.92 1.79-.926 2.53-.165.803 2.067.144 2.92"/><use xlink:href="#o" x="-2.24" y="18.61"/><use xlink:href="#e" x="32.244" y="-57.379"/><use xlink:href="#f" x="32.244" y="-57.379"/><use xlink:href="#g" x="59.115" y="-29.466"/><use xlink:href="#q"/><use xlink:href="#T" x="30.005" y="-38.77"/><use xlink:href="#a" x="39.857" y="-35.667"/><use xlink:href="#n" x="-8.51" y="18.609"/><use xlink:href="#V" x="26.87" y="-41.871"/><use xlink:href="#m" x="-21.497" y="12.406"/><path d="M271.613 463.118c-.66.853-1.79.926-2.53.166s-.803-2.067-.144-2.92 1.79-.926 2.53-.165.803 2.067.144 2.92"/><use xlink:href="#e" x="42.992" y="-32.566"/><use xlink:href="#X" x="26.87" y="-41.872"/><use xlink:href="#b" x="42.993" y="-24.812"/><path d="M258.178 449.16c-.658.853-1.79.926-2.528.166s-.803-2.067-.144-2.92 1.79-.926 2.53-.165a2.3 2.3 0 0 1 .143 2.919"/><use xlink:href="#q" x="-12.987" y="-6.203"/><use xlink:href="#i" x="29.108" y="-60.482"/><use xlink:href="#r"/><use xlink:href="#d" x="42.993" y="-24.813"/><use xlink:href="#V" x="40.752" y="-13.957"/><use xlink:href="#V" x="37.618" y="-17.058"/><use xlink:href="#s"/><use xlink:href="#S" x="10.748" y="-44.972"/><use xlink:href="#e" x="30.005" y="-38.769"/><use xlink:href="#g" x="39.858" y="-35.668"/><use xlink:href="#b" x="30.006" y="-31.016"/><use xlink:href="#T" x="10.747" y="-44.972"/><use xlink:href="#b" x="53.74"/><path d="M268.926 474.5c-.658.853-1.79.927-2.528.166s-.803-2.067-.144-2.92 1.79-.927 2.528-.166.803 2.067.144 2.92"/><use xlink:href="#q" x="-2.239" y="18.609"/><use xlink:href="#i" x="39.858" y="-35.668"/><use xlink:href="#S" x="10.748" y="-37.218"/><use xlink:href="#n" x="-10.75" y="37.218"/><path d="M252.356 456.915c-.66.853-1.79.926-2.53.166s-.803-2.067-.144-2.92 1.79-.926 2.53-.165.803 2.067.144 2.92"/><use xlink:href="#s" x="-12.987" y="-6.204"/><use xlink:href="#X" x="7.615" y="-48.075"/><use xlink:href="#Y" x="10.748" y="-44.974"/><use xlink:href="#s" x="10.75" y="24.813"/><use xlink:href="#W" x="48.366" y="7.754"/><use xlink:href="#e" x="40.752" y="-13.956"/><use xlink:href="#g" x="50.606" y="-10.846"/><use xlink:href="#b" x="40.754" y="-6.202"/><use xlink:href="#T" x="21.497" y="-20.16"/><use xlink:href="#d" x="23.736" y="-31.016"/><use xlink:href="#i" x="26.87" y="-41.872"/><use xlink:href="#f" x="23.737" y="-31.015"/><use xlink:href="#W" x="21.496" y="-20.161"/><use xlink:href="#Z" x="10.747" y="-37.218"/><use xlink:href="#S" x="21.496" y="-12.405"/><use xlink:href="#n" y="62.031"/><use xlink:href="#n" x="-3.135" y="58.929"/><use xlink:href="#s" x="-2.24" y="18.609"/><use xlink:href="#X" x="18.362" y="-23.262"/><use xlink:href="#U" x="21.496" y="-12.406"/><use xlink:href="#g" x="37.62" y="-17.059"/><use xlink:href="#q" x="-21.496" y="12.407"/><use xlink:href="#T" x="8.509" y="-26.363"/><use xlink:href="#d" x="10.75" y="-37.218"/><use xlink:href="#n" x="-30.006" y="31.015"/><use xlink:href="#P" x="10.748" y="-44.973"/><use xlink:href="#G" x="-8.508" y="-43.423"/><use xlink:href="#i" x="37.618" y="-17.059"/><use xlink:href="#f" x="34.484" y="-6.203"/><use xlink:href="#r" x="5.374" y="40.321"/><use xlink:href="#Z" x="21.497" y="-12.406"/><use xlink:href="#e" x="21.496" y="-20.16"/><use xlink:href="#X" x="5.375" y="-29.465"/><use xlink:href="#b" x="21.497" y="-12.406"/><path d="M236.682 461.567c-.658.853-1.79.926-2.528.166s-.803-2.067-.144-2.92 1.79-.926 2.53-.165.802 2.067.143 2.92"/><use xlink:href="#q" x="-34.483" y="6.203"/><use xlink:href="#U" x="32.244" y="12.408"/><use xlink:href="#g" x="48.367" y="7.754"/><use xlink:href="#R" x="2.239" y="-18.61"/><use xlink:href="#T" x="19.257" y="-1.55"/><use xlink:href="#d" x="21.497" y="-12.406"/><use xlink:href="#n" x="-19.258" y="55.828"/><use xlink:href="#f" x="21.497" y="-12.407"/><use xlink:href="#s" x="-21.495" y="12.406"/><use xlink:href="#U" x="5.374" y="-15.507"/><use xlink:href="#e" x="8.509" y="-26.363"/><use xlink:href="#V" x="2.239" y="-18.609"/><use xlink:href="#D" x="-7.613" y="-21.711"/><use xlink:href="#D" x="-10.748" y="-24.813"/><use xlink:href="#X" x="16.122" y="-4.653"/><use xlink:href="#b" x="32.245" y="12.406"/><use xlink:href="#p" x="-16.122" y="52.727"/><use xlink:href="#q" x="-23.735" y="31.015"/><use xlink:href="#i" x="18.361" y="-23.262"/><use xlink:href="#S" x="-10.748" y="-24.81"/><use xlink:href="#n" x="-32.245" y="49.625"/><use xlink:href="#Z" x="2.239" y="-18.61"/><use xlink:href="#s" x="-34.483" y="6.203"/><use xlink:href="#d" x="29.11" y="9.305"/><use xlink:href="#J" x="-7.613" y="-21.71"/><use xlink:href="#M" x="-10.747" y="-32.567"/><use xlink:href="#K" x="-10.748" y="-24.812"/><use xlink:href="#e" x="19.257" y="-1.55"/><use xlink:href="#V" x="12.987" y="6.204"/><use xlink:href="#b" x="19.258" y="6.203"/><use xlink:href="#T" y="-7.753"/><use xlink:href="#d" x="2.24" y="-18.608"/><use xlink:href="#i" x="5.374" y="-29.465"/><use xlink:href="#f" x="2.24" y="-18.609"/></g></g><g class="B"><path d="M158.05 613.206c.363-4.306 18.905-6.258 41.414-4.358s40.46 6.93 40.097 11.236-18.905 6.258-41.414 4.358-40.46-6.93-40.097-11.236m74.028-22.208c.363-4.307 18.904-6.258 41.413-4.358s40.46 6.93 40.098 11.236-18.905 6.258-41.413 4.358-40.46-6.93-40.098-11.236" class="G"/><path d="M263.595 367.116c-8.112 4.464-23.104 12.59-29.287 15.035-3.344 1.326-6.86.928-9.626-1.4-2.776-2.34-3.798-5.735-5.56-8.748-1.257-2.148-2.608-4.246-3.916-6.363-2.795-4.533-5.958-9.146-7.907-14.114-.037-.106-.41-1.29-.5-1.582v-.006h-.02c-.53-.2-9.992-2.938-11.5-3.842-1.563-.927-4.72-4.177-5.35-4.177-.616.007 1.246-1.874 3.12-1.257s5.933 2.776 6.867 1.836c.928-.934 1.233-1.874-.025-4.986s-2.527-6.843-2.84-7.777c-.317-.94-1.887-4.358-.647-4.987s5.653 8.704 5.965 9.015c.317.305.94.305.933-.317 0-.623-1.905-6.843-2.217-7.783-.26-.778-.472-1.575-.684-2.365-.137-.574-1.077-3.525.367-2.852.934.43 1.48 2.204 1.86 3.03.3.642.618 1.39.94 2.186-.454-1.345-.853-2.702-1.17-4.066-.07-.304-.218-.634-.012-.84.323-.31 4.047 6.2 4.32 6.755 1.258 2.478 2.828 5.91 3.145 5.597 1.183-1.182-1.494-9.656.268-9.662.603 0 1.232 2.826 1.363 3.25.76 2.5 1.638 4.918 2.298 7.44.5 1.942.977 3.916 1.575 5.828.21.653-.026 2.297.61 3.598l.225.454c.068.312.15.753.255 1.308a2.11 2.11 0 0 1 .05.224c.772 3.972 4.334 7.888 6.71 11.02 3.04 4 6.3 7.85 9.383 11.835l22.507-14.86c.043-.03.087-.056.13-.087 4.327-2.852 10.19-.903 11.935 3.94l.075.218c1.276 3.623-.25 7.633-3.636 9.5" class="C"/><path d="M248.165 358.087l5.945 14.27 10.15-5.6s2.165-.947 3.897.784 2.598 6.063 2.598 8.66-5.196 42.193-5.196 42.193h38.105s1.656-35.358 1.092-44.928c-.546-9.27-5.465-30.356-5.465-30.356l-20.676-.025s-23.593 5.548-30.45 15.002" fill="#20e8dd"/><path d="M248.176 358.092l-4.492 2.995 5.616 13.773 4.825-2.52-5.95-14.247z" fill="#35f6eb"/><path d="M270.074 365.828a25.59 25.59 0 0 1 4.765 16.419" fill="#20e8dd"/><path d="M307.908 594.933a4.27 4.27 0 0 1-4.457-4.072l-.472-10.47 8.53-.384.47 10.468a4.27 4.27 0 0 1-4.073 4.457" class="C"/><path d="M312.338 595.497v.68l-.025.922c-.02.542-.07 1.045-.15 1.48-.485 2.634-4.52 3.15-7.97 1.88-5.124-1.887-12.097 1.892-16.592-1.544-.33-.25-.617-.523-.853-.816a3.49 3.49 0 0 1-.343-.467 2.96 2.96 0 0 1-.223-.392 3.75 3.75 0 0 1-.199-.468c-.35-.958-.325-2.03.13-3.143 1.382-3.456 6.027-2.752 9.04-3.138l8.275-1.283c3.617 8.947 8.573 1.687 8.573 1.687a49.27 49.27 0 0 0 .336 4.601" class="D"/><path d="M312.338 596.176l-.025.922a19.98 19.98 0 0 1-4.433.909c-2.577.224-5.18-.057-7.583-.903l-1.177-.442c-1.32-.517-2.553-.996-3.873-.97-1.09.018-2.14.398-3.243.797l-1.152.398c-1.432.455-2.94.7-4.446.747a2.96 2.96 0 0 1-.223-.392 3.73 3.73 0 0 1-.199-.467 15.53 15.53 0 0 0 4.587-.709l1.116-.393c1.132-.405 2.302-.828 3.548-.853 1.5-.025 2.89.517 4.234 1.034l1.14.435c3.73 1.314 7.963 1.208 11.73-.112" fill="#f9f7f7"/><path d="M233.758 616.746c-2.4-.18-4.18-2.26-4.002-4.648l.776-10.382 8.65.647-.777 10.38c-.178 2.39-2.26 4.18-4.648 4.002" class="C"/><path d="M238.224 613.746s0 2.3-.262 4.55l-.012.136-.093.754-.026.163c-.105.66-.236 1.276-.398 1.786-1.127 3.524-6.157 1.464-8.417.735-2.11-.69-4.303-1.084-6.5-1.314-1.588-.162-4.24.268-5.59-.243-1.606-.6-3.15-1.606-3.96-2.9-.018-.02-.03-.044-.044-.063-.168-.28-.304-.572-.398-.872l-.02-.055c-.273-.94-.18-2.005.474-3.175 1.786-3.22 6.09-1.974 9.1-1.974l7.75.07c2.372 9.04 8.405 2.403 8.405 2.403" class="D"/><path d="M237.95 618.434l-.093.754-.025.162c-1.183.242-2.397.367-3.61.367-2.472 0-4.937-.51-7.154-1.563l-1.09-.548c-1.202-.616-2.347-1.2-3.598-1.288-1.053-.08-2.075.205-3.158.504l-1.126.293a14.82 14.82 0 0 1-5.13.298c-.02-.018-.032-.043-.044-.062a4.07 4.07 0 0 1-.399-.872c1.78.28 3.617.212 5.373-.205l1.1-.286c1.114-.306 2.26-.623 3.455-.542 1.433.1 2.71.76 3.936 1.4l1.057.53c3.232 1.526 6.998 1.85 10.516 1.058" fill="#f9f7f7"/><path d="M303.7 436.32s-.868 64.197.867 84.15 8.676 60.728 8.676 60.728l-11.278 2.602s-18.218-58.992-19.953-72.004-6.073-39.04-6.073-39.04l-2.602-23.423L303.7 436.32z" fill="#2c11a8"/><path d="M290.725 460.902c-10.08 11.4-17.506 20.135-23.163 30.138-5.543 9.786-9.403 20.777-12.405 36.662l-6.602 35.508-7.218 39.645c-.044.21-.06.32-.06.32l-13.88-.867 3.73-35.056 9.283-79.457c1.735-6.94 25.158-69.403 25.158-69.403h38.096s7.015 19.953-12.938 42.51" fill="#4322d2"/></g><path d="M268.183 430.083c.566 5.44 2.282 10.99 6.11 14.9s10.11 5.735 14.985 3.254" fill="none" stroke="#2c11a8" stroke-width=".62" class="H"/><g class="B"><path d="M296.866 330.606h.504l-1.78 12.452h-16.898v-10.634c-6.718-.573-11.886-9.102-11.063-15.272.05-.367.168-1.525.385-2.596s.542-2.05.997-2.05a3.04 3.04 0 0 1-2.858-4.078l5.46-15.004c10.4 0 19.083 15.615 19.083 15.615l6.94 13.878-.77 7.688z" class="C"/><path d="M318.65 335.762c-.965-2.512-2.175-4.934-2.65-7.683-1.13-6.516.564-13.23-.9-19.718-1-4.467-2.414-8.446-4.58-11.808-2.76-4.282-6.745-7.563-12.663-9.58-8.7-2.964-20.517-1.052-28.328 3.78-4.363 2.697.47 2.686 2.01 5.868.764 1.578 1.06 3.336 1.633 4.993 1.2 3.47 3.895 6.952 7.256 8.58 3.728 1.803 5.788 3.003 8.053 6.753 1.568 2.6 3.17 5.287 3.618 8.3.688 4.612-1.404 8.967-2.588 13.308-.803 2.948-1.768 9.024 3.05 9.025 0 0-.867 7.807 6.073 8.674s16.484 1.736 18.22-1.735c1.967-3.933 3.275-8.492 3.128-12.977-.067-2.077-.638-3.946-1.338-5.768" fill="#001128"/><path d="M187.573 312.87l35.538-19.21 21.72 56.698-34.577 19.2-22.68-56.7z" fill="#f0fafc"/></g><g fill="none"><g stroke-width=".87" stroke="#d8e5ed"><path d="M197.646 317.735a155.16 155.16 0 0 1 14.936 40.901l27.766-12.16"/><path d="M-1.078 5.298h27.11" transform="matrix(.920475 -.390801 -.390801 -.920475 204.391998 329.131989)"/><path d="M-1.045 5.15h26.428" transform="matrix(.920924 -.389741 -.389741 -.920924 208.156998 338.665009)"/><path d="M-.942 4.92c8.875.2 17.755.21 26.63 0" transform="matrix(.929239 -.36948 -.36948 -.929239 211.755997 347.734009)"/><path d="M-1.212 5.6c8.972-.777 18.012-.776 26.983 0" transform="matrix(.910146 -.414289 -.414289 -.910146 214.841003 356.131012)"/><path d="M-13.548-19.44a407.51 407.51 0 0 0 41.446 0" transform="matrix(.346238 .938147 .938147 -.346238 229.619995 322.182007)"/><path d="M-12.723-18.636c13.307 1.164 26.715 1.165 40.02 0" transform="matrix(.364176 .93133 .93133 -.364176 237.658997 318.94101)"/><path d="M-11.728-17.466H26.01" transform="matrix(.37843 .92563 .92563 -.37843 242.992004 317.381012)"/></g><path d="M212.81 357.07c.343-4.796-.053-9.645-1.167-14.32-.335-1.405-.734-2.874-.358-4.268s1.88-2.6 3.225-2.08c.8.31 1.293 1.102 1.694 1.86a29.3 29.3 0 0 1 2.856 8.139c1.123-.748 1.67-2.15 1.72-3.5s-.324-2.673-.694-3.97l-2.457-8.61c-.276-.968-.554-1.98-.366-2.968s1-1.937 2.007-1.922c1.337.022 2.062 1.536 2.478 2.807l2.896 8.844c1.144-.358 1.924-1.484 2.165-2.658s.03-2.393-.27-3.554c-.85-3.313-2.4-6.407-3.358-9.69s-1.28-6.964.272-10.01" stroke="#fc83a0" stroke-width="1.74" stroke-linejoin="round" class="H"/></g><g class="B"><path d="M269.765 345.798l-1.905.84-.866.374-1.176.454-6.75 2.584-4.19-3.83c-.553-.4-1.1-.897-1.712-1.2-.59-.267-1.282-.392-1.9-.572-1.356-.392-2.695-.804-3.972-1.394l-.778-.2c-.68-.193-1.308-.392-1.756-.598-.504-.237-1.276-.45-2.154-.628.106.155.25.3.218.572-.03.243-.21.454-.423.58-.648.38-1.214-.013-1.824-.28a.99.99 0 0 1-.517-.504c-.424.865-1.457 1.63-2.43 1.208a.8.8 0 0 1-.391-.361c-.517.58-1.295.952-2.037.63-.628-.275-.616-1.078-.423-1.874l-1.42.323c-.904.206-2.74.64-2.86-1-.068-.958 2.03-1.587 2.03-1.587s5.34-1.463 6.985-2.54c.025-.02.143-.157.274-.293l-1.22-1.27c-.305-.317-.542-.54-.785-.92-.25-.398-.66-.18-1.052-.087-1.395.336-2.61 1.158-3.76 1.98-.723.51-1.407 1.077-2.024 1.706-.274.273-.554.7-.872 1.02-.28.3-.59.537-.96.586a1 1 0 0 1-.952-.498c-.317-.597.187-1.593.442-2.16.367-.778.835-1.507 1.364-2.184.94-1.227 2.16-2.54 3.63-3.12 2-.785 7.01-3.23 7.89-2.198.585.703 5.435 4.023 8.448 6.065l3.886 2.26 3.74 2.173 12.197 5.927z" class="C"/><path d="M229.398 336.837l1.387 3.2-3.895-.213 2.508-2.988z" fill="#f97148"/><g class="D"><path d="M247.607 327.68l.693 1.6-6.935 3.004-.694-1.6 6.936-3.006zm-6.545 5.37l8.003-3.47-1.156-2.667-8.002 3.468 1.155 2.668z"/><path d="M251.43 329.2c.383.884-.023 1.91-.907 2.294l-1.068.462-1.386-3.2 1.067-.463c.884-.383 1.91.023 2.294.907"/></g></g><path d="M229.397 336.836l1.387 3.2 18.672-8.09-1.387-3.2z" class="D"/><g class="B"><path d="M278.692 332.37s5.713-1.045 6.462-1.806-6.368 8.363-6.368 8.363l-.094-6.557z" fill="#774011"/><path d="M41.748 607.183c0-4.37 18.523-7.915 41.373-7.915s41.374 3.544 41.374 7.915S105.97 615.1 83.12 615.1s-41.373-3.544-41.373-7.916" class="G"/><path d="M111.558 330.053c-.353.807-3.27 1.272-3.27 1.272s1.858 15.84-6.423 18.095c-1.745.472-3.23.674-4.49.687l1.965 7.638-20.853 2.37s2-15.713 1.908-19.348l-.226-.132-4.698-14.85s-1.865-8.955 3.948-3.684l4.264-7.035 18.384-3.917s3.665 6.235 4.383 8.52c.265.844.353 2.7.8 3.45.725 1.235 3.036 3.665 3.4 4.598s1.16 1.764.907 2.336" class="E"/><path d="M97.366 350.13l-10.074-4.184 11.146 8.297-1.072-4.113z" fill="#f9c5bf"/><path d="M108.1 309.988a12.78 12.78 0 0 1-2.607 1.864c-.07.05-.14.082-.208.114-.39.208-.756.377-1.1.503-.063.032-.132.044-.2.076-3.162 1.007-15.185.825-18.65 4.025-1.574 1.448-1.965 7.205-4.08 7.506-1.07.146-2.676-2.733-3.608-2.374-.94.37-1.87.73-1.348 4.837.516 4.1 3.11 7.275 3.804 9.813.573 2.07.107 8.564.107 8.564s-.12-.126-.36-.352c-1.782-1.77-9.806-9.913-14.826-17.955-2.658-4.258-1.788-9.687.573-14.505-2.966-2.135-7.545-4.365-11.852-6.317-6.197-2.82-7.33-7.33-6.77-11.84.26-2.01 1.178-4.692 3.282-6.91 2.6-2.733 7.016-4.742 14.202-3.804 8.495 1.102 12.154 10.688 13.66 17.156 3.8-.176 10.618 1.4 10.618 1.4 4.862-11.04 10.367-12.098 13.352-12.72 2.985-.617 9.66 2.708 10.045 10.624.24 4.907-1.795 8.213-4.043 10.285" class="F"/><path d="M79.86 344.565c-1.782-1.772-9.803-9.916-14.822-17.955-2.66-4.256-1.8-9.688.57-14.506-2.966-2.132-7.547-4.36-11.855-6.318-6.196-2.817-7.328-7.328-6.767-11.84.255-2.01 1.176-4.695 3.283-6.906.254-.267 6.846 3.98 7.507 4.394 2.53 1.587 4.995 3.307 7.203 5.327 3.27 2.994 5.548 6.9 6.68 11.18.566 2.146.916 4.43.905 6.654-.013 2.32-1.134 4.67-.622 6.978.627 2.83 1.704 5.54 2.536 8.313.667 2.227 1.43 4.422 2.51 6.486 1.004 1.91 2.247 3.904 2.53 6.095.087.755.245 1.5.342 2.098" fill="#00006d"/><path d="M71.386 608.513a4.39 4.39 0 0 0 4.414-4.361l.063-10.53-8.775-.052-.064 10.53a4.39 4.39 0 0 0 4.362 4.413" class="E"/><path d="M91.742 611.923c-2.413 2.036-5.687 1.887-9.003 1.702l-1.08-.053c-2.334-.114-4.633-.13-6.608.703-3.422 1.44-7.53 1.114-8.144-1.527-.614-2.633.135-8.088.135-8.088s5.538 7.65 8.768-1.563l7.903.674c2.536.2 6.17-.405 8.23 1.34.246.194.465.44.65.71.157.203.29.43.403.685.93 2.027.42 4.002-1.255 5.415" class="F"/><path d="M106.423 454.7s-3.694 41.374-6.73 53.134l-2.45 9.223-1.325 4.186c-.57 1.026-3.29 9.548-6.073 18.675L88.3 545c-2.57 8.52-4.862 16.454-5.186 18.147-.676 3.52-5.002 26.53-4.844 33.716.044 1.774-3.44 2.16-4.704 2.08-1.15-.07-2.28-.535-3.396-.772-1.58-.342-3.115-.772-4.73-.772a1.25 1.25 0 0 1-1.115-.983c-.5-2.492-1.85-9.828-2.264-18.56-.254-5.265-.167-11.04.64-16.568.65-4.476 1.773-8.784 3.58-12.54 1.86-3.86 3.335-8.934 4.458-14.638 1.352-6.818 2.203-14.55 2.607-22.193.842-15.604-.15-58.946-2.475-61.714l35.54 4.5z" fill="#fee983"/><path d="M89.846 539.92L88.3 545l-.552.842s-21.5 32.768-25.6 32.03c-.035-.01-.07-.01-.096-.017-.255-5.266-.167-11.04.64-16.57 1.448-1.158 2.896-2.08 4.134-2.57 4.387-1.755 7.897-6.143 10.53-8.776s7.02-8.775 9.653-9.653c1.124-.377 2.08-.43 2.817-.368" fill="#efd66c"/><path d="M43.694 592.184a4.39 4.39 0 0 0 5.063 3.588l10.38-1.77-1.475-8.65-10.38 1.77a4.39 4.39 0 0 0-3.588 5.063" class="E"/><path d="M49.575 613.01c-.044.035-.097.07-.15.105-.28.203-.58.36-.87.492-1.588.693-3.265.404-4.686-.8-3.046-2.536-2.922-7.03-3.572-11.092a29.24 29.24 0 0 0-.281-1.519v-.01c-.29-1.228-.693-2.386-1.35-3.404-2.028-3.116-2.413-7.214.08-8.284 2.483-1.062 8.155-1.302 8.155-1.302s-6.74 6.82 2.897 8.39l.716 7.9c.272 3 1.948 7.337-.94 9.513" class="F"/><g fill="#fef7d8"><path d="M110.653 537.663c-1.062 5.292-2.475 9.574-4.317 12.277-5.196 7.582-16.56 18.622-27.398 28.407-9.548 8.6-18.7 16.226-22.878 19.667-1.5 1.246-2.378-.685-2.378-.685-.334-.816-.3-2-.413-2.888-.237-1.684-.605-3.422-1.246-5.037-.386-.956-2.115-3.194-1.202-4.194l.833-.922c8.943-9.88 17.464-20.22 25.652-30.724 2.5-3.23 5.002-6.485 7.3-9.88 1.984-2.915 3.352-6.24 3.65-9.768.316-3.633-.508-7.38-.684-11.014-1.14-23.176-14.585-53.697-16.78-72.126 5.187.228 22.676 3.072 27.863 3.3l13.82 1.975s3.695 54.242-1.825 81.622"/><path d="M110.653 537.663c-1.062 5.292-2.475 9.574-4.317 12.277-5.196 7.582-16.56 18.622-27.398 28.407-.166-.2-.28-.404-.342-.56-.866-2.223 2-3.817 3.376-4.956 4.418-3.655 7.46-9.244 10.92-13.77 2.853-3.73 5.954-7.262 8.95-10.876 2.897-3.496 5.287-7.658 8.81-10.52"/></g></g><path d="M81.497 457.476c2.656 5.406 5.71 10.767 10.22 14.76s10.736 6.454 16.622 5.177" fill="none" stroke="#111b97" stroke-width=".63" class="H"/><g class="B"><path d="M120.798 454.887s11.088.52 10.135-2.86-16.96-47.2-16.96-47.2l6.824 50.048m-39.26-99.763s16.572 7.46 16.9-.878l1.756 4.388s1.755 4.387 2.633 7.02c1.034 3.106 9.348 18.788 11.408 25.45.394 1.276.877 7.02.877 7.02s-7.898-15.796-9.653-18.43-23.922-24.57-23.922-24.57" fill="#cbe2ef"/><path d="M119.43 457.612c-4.467.342-36.752-4.222-36.752-4.222l-20-2.94c-.553-.08-.693-.817-.21-1.097 1.5-.87 2.72-2.352 3.326-4.22 2.45-7.574 3.52-16.13 3.484-24.028-.01-2.518-.167-5.028-.42-7.53a103.72 103.72 0 0 0-.334-2.87c-1.263-9.934-3.685-19.754-3.79-29.688-.08-6.985 1.825-12.97 5.845-18.587.877-1.228 6.573-10.1 8.556-9.065 15.893 8.267 23.598 15.936 31.768 32.12 3.02 5.968 4.203 12.865 5.66 19.368 2.563 11.408 4.494 22.948 5.8 34.567.175 1.597 1.062 5.8 1.158 9.767.105 4.212-.667 8.153-4.09 8.425" class="F"/><path d="M155.92 378.082c-.327.762-1.744 1.24-2.406 1.562l-1.744.8 3.256-1.026c.246-.064.504-.19.68-.025.258.252-4.912 3.388-5.36 3.62-1.97 1.064-4.698 2.4-4.44 2.645.976.932 7.747-1.398 7.79.02.013.485-2.255 1.05-2.595 1.165l-5.945 2.003-4.66 1.39-4.472 1.733c-.006-.007-.006-.013-.013-.02l-14.705 11.985-.007-.02c-3.086 3.256-6.607 6.166-10 9.02-4.4 3.677-9.038 8.13-14.674 9.686-1.827.5-5.51 1.814-7.337.743-1.688-.995-4.03-7.84-5.202-11.267-1.172-3.42-10.764-32.762-10.984-34.708-.214-1.953-1.304-11.702 7.973-13.53 9.27-1.82 12.96 13.56 12.96 13.56s5.517 24.663 6.468 26.137c.712 1.096 14.826-7.652 21.955-12.162l.416-.27 9.07-5.99c.686-2.09 2.985-9.146 3.6-10.222.718-1.278 2.878-4.6 2.865-5.114-.02-.497 1.53.957 1.077 2.48-.46 1.518-2.116 4.837-1.34 5.568s1.536.957 4.018-.12 5.46-2.172 6.21-2.443c.75-.283 3.47-1.618 4.006-.63.53.995-6.903 4.737-7.148 4.994-.233.26-.22.763.277.738.504-.013 5.48-1.67 6.222-1.94a29.48 29.48 0 0 1 1.896-.598c.46-.126 2.815-.94 2.305.233" class="E"/></g></g><defs ><path id="C" d="M271.165 525.667c-.658.852-1.79.926-2.53.165s-.802-2.067-.144-2.92 1.792-.927 2.53-.166.803 2.067.144 2.92"/><path id="D" d="M268.03 522.048c-.658.853-1.79.927-2.53.166s-.802-2.067-.144-2.92 1.792-.926 2.53-.165.803 2.067.144 2.92"/><path id="E" d="M264.448 518.43c-.66.852-1.792.926-2.53.166s-.803-2.068-.144-2.92 1.79-.926 2.53-.166.802 2.067.144 2.92"/><path id="F" d="M257.73 511.7c-.66.852-1.79.926-2.53.165s-.803-2.067-.144-2.92 1.79-.927 2.53-.166.803 2.067.144 2.92"/><path id="G" d="M271.613 532.903c-.66.853-1.79.927-2.53.166s-.803-2.067-.144-2.92 1.79-.926 2.53-.165.803 2.067.144 2.92"/><path id="H" d="M268.478 529.285c-.66.852-1.79.926-2.53.166s-.803-2.068-.144-2.92 1.79-.926 2.53-.166.802 2.067.144 2.92"/><path id="I" d="M264.895 526.184c-.658.852-1.79.926-2.53.166s-.802-2.068-.144-2.92 1.79-.926 2.53-.166.803 2.067.144 2.92"/><path id="J" d="M261.76 522.565c-.658.852-1.79.926-2.53.165s-.802-2.067-.144-2.92 1.79-.927 2.53-.166.803 2.067.144 2.92"/><path id="K" d="M258.178 518.946c-.658.853-1.79.927-2.528.166s-.803-2.067-.144-2.92 1.79-.926 2.53-.165.802 2.067.143 2.92"/><path id="L" d="M268.478 536.523c-.66.852-1.79.926-2.53.165s-.803-2.067-.144-2.92 1.79-.927 2.53-.166.802 2.067.144 2.92"/><path id="M" d="M261.76 529.802c-.658.853-1.79.927-2.53.166s-.802-2.067-.144-2.92 1.79-.926 2.53-.165.803 2.067.144 2.92"/><path id="N" d="M258.626 526.184c-.66.852-1.79.926-2.53.166s-.802-2.068-.144-2.92 1.79-.926 2.53-.166.803 2.067.144 2.92"/><path id="O" d="M255.49 523.082c-.66.852-1.79.926-2.53.166s-.803-2.068-.144-2.92 1.79-.926 2.53-.166.803 2.067.144 2.92"/><path id="P" d="M255.94 537.556c-.66.853-1.792.927-2.53.166s-.803-2.067-.144-2.92 1.79-.926 2.53-.165.802 2.067.144 2.92"/><path id="Q" d="M239.817 534.972c-.66.852-1.792.926-2.53.165s-.803-2.067-.144-2.92 1.79-.927 2.53-.166.802 2.067.144 2.92"/><path id="R" d="M254.596 508.09c-.66.853-1.79.927-2.53.166s-.803-2.067-.144-2.92 1.79-.926 2.53-.165.802 2.067.144 2.92"/><path id="S" d="M247.878 501.37c-.66.852-1.79.926-2.53.165s-.802-2.067-.144-2.92 1.79-.926 2.53-.166.803 2.067.144 2.92"/><path id="T" d="M234.443 487.93c-.66.853-1.792.926-2.53.166s-.803-2.067-.144-2.92 1.79-.926 2.53-.165.802 2.067.144 2.92"/><path id="U" d="M231.308 484.312c-.658.852-1.79.926-2.528.165s-.803-2.067-.144-2.92 1.79-.926 2.53-.166.802 2.067.143 2.92"/><path id="V" d="M227.726 480.693c-.66.853-1.79.927-2.53.166s-.803-2.067-.144-2.92 1.79-.927 2.53-.166.802 2.067.144 2.92"/><path id="W" d="M221.008 473.974c-.66.853-1.79.926-2.53.166s-.802-2.067-.144-2.92 1.79-.926 2.53-.165.803 2.067.144 2.92"/><path id="X" d="M238.025 498.27c-.658.852-1.79.926-2.53.165s-.802-2.067-.144-2.92 1.79-.926 2.53-.166.803 2.067.144 2.92"/><path id="Y" d="M231.308 491.55c-.658.853-1.79.927-2.528.166s-.803-2.067-.144-2.92 1.79-.927 2.53-.166a2.3 2.3 0 0 1 .143 2.919"/><path id="Z" d="M228.173 487.93c-.658.853-1.79.926-2.53.166s-.802-2.067-.144-2.92 1.792-.926 2.53-.165.803 2.067.144 2.92"/><path id="a" d="M221.456 481.21c-.66.852-1.792.926-2.53.165s-.803-2.067-.144-2.92 1.79-.926 2.53-.166.802 2.067.144 2.92"/><path id="b" d="M218.32 477.592c-.66.853-1.792.927-2.53.166s-.803-2.067-.144-2.92 1.79-.927 2.53-.166.802 2.067.144 2.92"/><path id="c" d="M231.756 498.786c-.66.853-1.79.927-2.53.166s-.802-2.067-.144-2.92 1.79-.926 2.53-.165.803 2.067.144 2.92"/><path id="d" d="M228.62 495.168c-.66.852-1.79.926-2.53.165s-.803-2.067-.144-2.92 1.79-.926 2.53-.166.803 2.067.144 2.92"/><path id="e" d="M225.038 492.066c-.658.852-1.79.926-2.53.165s-.802-2.067-.144-2.92 1.792-.926 2.53-.166.803 2.067.144 2.92"/><path id="f" d="M221.903 488.447c-.658.853-1.79.927-2.53.166s-.802-2.067-.144-2.92 1.79-.927 2.53-.166.803 2.067.144 2.92"/><path id="g" d="M212.05 485.346c-.658.853-1.79.927-2.53.166s-.802-2.067-.144-2.92 1.792-.927 2.53-.166.803 2.067.144 2.92"/><path id="h" d="M235.786 516.88c-.658.852-1.79.926-2.53.166s-.802-2.068-.144-2.92 1.792-.926 2.53-.166.803 2.067.144 2.92"/><path id="i" d="M222.352 502.922c-.66.852-1.79.926-2.53.165s-.803-2.067-.144-2.92 1.79-.926 2.53-.166.802 2.067.144 2.92"/><path id="j" d="M194.138 508.608c-.66.852-1.79.926-2.53.165s-.802-2.067-.144-2.92 1.79-.927 2.53-.166.803 2.067.144 2.92"/><path id="k" d="M201.303 522.565c-.658.852-1.79.926-2.53.165s-.802-2.067-.143-2.92 1.79-.927 2.528-.166.803 2.067.144 2.92"/><path id="l" d="M179.36 527.734c-.66.852-1.792.926-2.53.166s-.803-2.068-.144-2.92 1.79-.926 2.53-.166.803 2.067.144 2.92"/><path id="m" d="M272.51 422.798c-.658.852-1.79.926-2.53.166s-.802-2.067-.144-2.92 1.79-.926 2.53-.165.803 2.067.144 2.92"/><path id="n" d="M266.24 423.315c-.66.853-1.79.927-2.53.166s-.803-2.067-.144-2.92 1.79-.927 2.53-.166.803 2.067.144 2.92"/><path id="o" d="M263.105 419.696c-.66.852-1.79.926-2.53.166s-.803-2.067-.144-2.92 1.79-.926 2.53-.165.803 2.067.144 2.92"/><path id="p" d="M263.552 434.17c-.658.853-1.79.927-2.528.166s-.803-2.067-.144-2.92 1.79-.927 2.53-.166.802 2.067.143 2.92"/><path id="q" d="M267.583 452.263c-.66.853-1.79.926-2.53.166s-.803-2.067-.144-2.92 1.79-.926 2.53-.165.802 2.067.144 2.92"/><path id="r" d="M247.878 438.822c-.66.853-1.79.927-2.53.166s-.802-2.067-.144-2.92 1.79-.927 2.53-.166.803 2.067.144 2.92"/><path id="s" d="M261.76 460.017c-.658.853-1.79.926-2.53.166s-.802-2.067-.144-2.92 1.79-.926 2.53-.165.803 2.067.144 2.92"/></defs></svg>