<svg xmlns="http://www.w3.org/2000/svg" width="100%" height="100%" viewBox="0 0 2788 3368" fill-rule="evenodd" stroke-miterlimit="10"><g transform="matrix(4.16667,0,0,4.16667,-1104.17,-2204.17)"><path d="M337 864V542h525v346h12V529H325v335h12z" fill="#3cb2fd" fill-rule="nonzero"/><path d="M-.001-.29h110.67" fill="none" stroke="#ededed" stroke-width="6" transform="matrix(.999986 .00525 .00525 -.999986 545.630981 652.807007)"/><path d="M934 908H265v26h669z" fill="#021867"/><path d="M794 901h-53v7h58v-2a5 5 0 0 0-5-5" fill="#f1ede4" fill-rule="nonzero"/><path d="M742 901h-22v7h22z" fill="#ef75d8"/><path d="M647.613 617.3c1.758 6.298 8.755 9.904 15.29 10.062s12.806-2.313 19.005-4.395 12.882-3.814 19.2-2.17c5.546 1.44 10.26 5.356 15.885 6.443 12.695 2.455 25.215-10.06 37.6-6.347" fill="none" stroke="#ededed" stroke-width="6"/><g fill-rule="nonzero"><path d="M894 617h-60v-50l60 7v43z" fill="#ef75d8"/><path d="M911 639h-60v50l60-7v-43z" fill="#1075fd"/><path d="M365 579h-60v50l60-7v-43z" fill="#ef75d8"/><path d="M562.15 1329.18c0-4.38-23.97-7.93-53.535-7.93s-53.535 3.55-53.535 7.93 23.968 7.932 53.535 7.932 53.535-3.552 53.535-7.932m172.784-22.8c-.393-4.362-24.583-5.75-54.03-3.1s-53.002 8.336-52.6 12.7 24.583 5.75 54.03 3.1 53-8.336 52.608-12.7" fill="#dde9f2"/><path d="M597.248 1007.734l-1.602 96.682a140.16 140.16 0 0 1-1.362 12.578c-2.964 19.82-9.66 39.656-16.648 58.018-8.7 22.88-19.804 48.148-38.615 64.652-.175.16-.352.303-.528.448-8.204 7.162-16.856 13.748-25.7 20.06-14.148 10.11-29.24 21.615-45.328 28.505-11.216 4.807-27.238-24.034-24.034-25.636.48-.24 2.516-2.003 5.656-4.904 17.962-16.583 71.974-70.29 76.06-88.028 2.5-10.815.673-44.543-1.65-74.458-2.163-27.687-4.76-91.12-4.76-91.12l78.51 3.204z" fill="#1075fd"/><path d="M469.066 1320.717c-5.167-15.5-1.602-32.045-1.602-32.045s-12.818-33.648-27.24-24.034-1.602 30.442 4.807 48.067 14.063 23.738 20.83 20.83c3.036-1.304 4.808-8 3.205-12.818M662.94 1298.3c-16.335.4-27.238-1.603-27.238-1.603s-40.057-8-35.58 14.07c3.444 16.985 28.632 10.465 47.362 9.5s26.82-6.48 26.025-13.8c-.356-3.284-5.505-8.3-10.57-8.178" fill="#021867"/><path d="M527.086 906.314l-8.515 26.348s-48.694-52.28-47.303-74.244c1.77-27.946 71.624-86.114 71.624-86.114 4.916-7.357 14.866-9.337 22.224-4.42s9.337 14.867 4.42 22.224c0 0-62.55 50.588-65.112 75.352-1.202 11.618 22.662 40.854 22.662 40.854" fill="#ffdfb8"/><path d="M605.26 1171.713c2.816-21.19-16.216-165.58-16.216-165.58l83.512 3.205-1.603 96.682c-1.496 23.937-8.524 47.634-14.806 70.595-8.68 31.72-20.444 118.472-22.046 129.69s-33.648 0-33.648-3.205.476-98.804 4.807-131.386" fill="#1075fd"/><path d="M598.615 842.124l-18.033 175.817s13.887 1.688 18.033 1.503c4.196-.187 18.033-1.503 18.033-1.503l-18.033-175.816z" fill="#111b97"/><path d="M677.276 1030.62s-45.08 13.524-67.622 10.52L596.67 900.005l-12.984 141.136c-22.54 3.004-67.622-10.52-67.622-10.52s-21.038-4.508-15.027-37.567c4.823-26.554 6.837-56.878 20.09-80.937 9.708-17.642 17.717-36.35 21.55-56.186 3.726-19.31.81-39.297-.947-58.682-.63-7.003-2.855-18.738 1.383-25.095 6.01-9.016 21.037-13.524 37.568-10.52h31.978c16.53-3.005 31.556 1.503 37.567 10.52 4.238 6.357 2.014 18.092 1.383 25.095-1.758 19.385-4.674 39.37-.946 58.682 3.832 19.836 11.84 38.544 21.548 56.186 13.254 24.06 15.268 54.383 20.09 80.937 6.01 33.06-15.027 37.567-15.027 37.567" fill="#cbdef3"/></g><g fill="#111b97"><path d="M521.337 909.488l123.38-145.814-7.338-6.2L514 903.278z"/><g fill-rule="nonzero"><path d="M520.876 898.368c3.295 1.1 5.877 9.418 6.254 12.235 1.048 7.827-5.258 14.28-8.32 20.926-4.23 9.18-1.483 17.914-2.092 27.436-.548 8.574-3.235 17.256-10.26 22.72-6.082 4.732-12.812 10.93-20.477 12.808-11.02 2.698-7.305-16.92-6.27-22.26 2.624-13.536 4.712-27.94 9.51-40.867 1.208-3.254 2.65-6.434 4.485-9.385 2.7-4.34 6.16-8.318 8.884-12.726 2.203-3.566 4.526-7.675 7.77-10.414 3.002-2.534 6.953-1.662 10.518-.474"/><path d="M489.648 931.83s-25.73 29.86-27.55 35.35 5.878 13.522 10.627 10.22 17.345-15.578 17.345-15.578l-.423-29.99z"/></g></g><g fill-rule="nonzero"><path d="M745.45 638.24c-.6 4.2-.5 8.55-.58 12.78l-.22 16.42-.43 18.9c-.23 6.32-.54 12.65-1.07 18.96-.46 5.58-1.07 11.16-2.12 16.66-.77 4.05-1.7 8.24-3.6 11.95-.4.78-.85 1.54-1.38 2.24-15.06 19.85-81.9 56.83-81.9 56.83-5.6 6.7-15.61 7.43-22.12 1.6-6.54-5.85-6.89-15.97-.77-22.25 0 0 67.98-39.13 83.55-59.5 8.85-11.57 13.06-61.93 16.95-74.98-1.25-2.18-4.86-6.74-5.81-8.63-.07-.13-.16-.3-.26-.53-2.08-2.28-4.8-5.2-5.5-5.64-1.2-.75-10.32-4.85-10.54-5.83 0 0-4.46-6.17 3.25-3.8 2.43.75 4.43 1.33 6.11 1.77.56-.35 4.95-3.22 4.95-6.97 0-4-11-2-11-2s-12 1-7-3 18-3 24-1 7 10 9 18c.85 3.43 2.16 6.74 3.53 9.98l1.83 4.22c.4.92.97 1.9 1.12 2.9a3.39 3.39 0 0 1 .01.9" fill="#ffdfb8"/><path d="M702.68 605.033l-.823 6.277 34.527 4.53c1.734.228 3.323-.993 3.55-2.727a3.17 3.17 0 0 0-2.727-3.551l-34.528-4.53z" fill="#141d42"/><path d="M701.855 611.3l.823-6.277-6.69 2.315 5.866 3.962z" fill="#5b50ce"/><path d="M725.962 868.23c-8.74 18.05-60.02 4.26-80 6-25.26 2.2-62 22-100-17-34.55-35.46-32.73-142.02-32.1-161.07a44.48 44.48 0 0 1-.201-4.18c0-25.17 20.95-45.58 46.8-45.58 16.18 0 30.44 8 38.85 20.17 11.83 9.94 21.37 64.82 47.66 82.66 28 19 94.56 86.86 79 119" fill="#111b97"/></g></g></svg>