<?xml version="1.0" encoding="UTF-8" standalone="no"?>
<!DOCTYPE svg PUBLIC "-//W3C//DTD SVG 1.1//EN" "http://www.w3.org/Graphics/SVG/1.1/DTD/svg11.dtd">
<svg width="100%" height="100%" viewBox="0 0 1313 1959" version="1.1" xmlns="http://www.w3.org/2000/svg" xmlns:xlink="http://www.w3.org/1999/xlink" xml:space="preserve" xmlns:serif="http://www.serif.com/" style="fill-rule:evenodd;clip-rule:evenodd;stroke-linejoin:round;stroke-miterlimit:1.41421;">
    <g transform="matrix(4.16667,0,0,4.16667,-322.917,0)">
        <circle cx="235" cy="312.5" r="157.5" style="fill:rgb(37,37,37);"/>
        <path d="M162.5,139.546L162.5,102.5C162.5,62.523 195.023,30 235,30C274.977,30 307.5,62.523 307.5,102.5L307.5,139.546C307.664,139.615 307.829,139.678 307.993,139.747C318.34,144.123 328.189,149.384 337.5,155.471L337.5,102.5C337.5,45.981 291.519,0 235,0C178.481,0 132.5,45.981 132.5,102.5L132.5,155.47C141.811,149.384 151.661,144.123 162.007,139.746C162.171,139.678 162.336,139.615 162.5,139.546Z" style="fill:rgb(37,37,37);fill-rule:nonzero;"/>
    </g>
</svg>
