<svg xmlns="http://www.w3.org/2000/svg" width="100%" height="100%" viewBox="0 0 1272 1302" fill-rule="evenodd" stroke-linecap="round" stroke-miterlimit="10"><g transform="matrix(4.16667,0,0,4.16667,-116.355,-358.333)"><path d="M120 86H51v74h69z" fill="#0a65c2"/><path d="M114 92H57v62h57z" fill="#fff"/><g fill-rule="nonzero"><path d="M107 105.5a7.5 7.5 0 1 1-15 0 7.5 7.5 0 1 1 15 0m7 28.3V144H57v-12.788c5.374-.7 9.98-5.348 10.6-10.705.276-2.408-.154-4.97 1.555-7.022.555-.666 1.374-1.093 2.24-1.1 1.838-.016 2.43 1.307 2.944 2.53l5.037 11.982c.66 1.572 1.476 3.3 3.08 3.9 1.4.52 3-.007 4.14-.952 1.4-1.152 1.384-3.704 3.696-3.8 1.328-.056 2.482.847 3 2.075 3.2 7.748 13.7 10.162 20.726 5.7" fill="#fee983"/><path d="M114 138.036V153H57l-.093-17.1.093-.06c2.8-1.848 6.1-2.023 9.396-1.324 3.327.7 6.414 2.22 9.554 3.5 5.92 2.435 12.207 4.13 18.607 4.35s12.936-1.098 19.443-4.35" fill="#fef7d8"/></g><path d="M43 306.5h275" fill="none" stroke="#d1e3fe" stroke-width="3"/><g fill-rule="nonzero"><path d="M240.55 227.405l-13.78 7.166s-15.517-13.894-19.844-19.292c-3.05-3.806-7.165-13.78-13.23-14.332l.55 38.584s15.986 22.6 19.844 22.6 9.92-3.308 13.78-7.166 17.088-20.394 17.088-20.394l-4.4-7.166z" fill="#021867"/><path d="M213.546 185.247c-4.18 6.214-10.29 9.848-15.4 9.694-.563.556-3.412 3.672-2.784 9.315l-15.435-7.717s8-4.164 9.8-8.827c-1.06-4.55.22-10.53 3.832-15.902 5.56-8.27 14.54-11.97 20.06-8.258s5.487 13.424-.074 21.695" fill="#ffcbbd"/><path d="M196.045 178.582s-2.27 6.242-2.27 8.512-5.107-1.702-6.242-3.972 1.135-12.485 1.135-12.485 3.405-12.484 10.215-13.052 9.362.443 12.484.568c3.32.133 9.647-1.135 12.484 4.54s2.27 8.512-1.135 9.647-8.796-.284-10.498-2.554-5.527-1.12-6.8 0c-1.663 1.45-4.057 6.556-6.242 6.242-1.305-.187-1.915-3.988-4.753-2.285s1.632 4.84 1.632 4.84" fill="#01154c"/></g><path d="M282 216.944h-43.2v4.438H282z" fill="#c731d3"/><path d="M280.816 221.382h-40.834v57.997h40.834z" fill="#ef75d8"/><g fill-rule="nonzero"><path d="M252.598 231.78l2.376-6.778 1.798-3.213c-.013-.31.964.604.677 1.56s-1.33 3.038-.842 3.5c.486.457.964.6 2.523-.078l3.9-1.535c.47-.175 2.178-1.014 2.514-.394s-4.332 2.974-4.486 3.136-.142.478.175.465 3.437-1.05 3.907-1.22l1.19-.377c.29-.078 1.768-.6 1.45.147-.207.48-1.095.78-1.512.983l-1.094.503c.675-.246 1.95-.466 2.635-.646.153-.04.474-.04.582.06.162.158-3.273 1.924-3.55 2.072l-3.35 1.786s4.865-.88 4.89.01c.01.308-1.414.66-1.628.73l-3.735 1.26-2.93.874c-.326.114-1.152.455-1.802.793l-.23.12-.776.174c-.585-1.053-2.662-3.85-2.662-3.85l-.02-.083z" fill="#ffcbbd"/><path d="M167.956 299.74l-42.783-9.413s5.084 19.54 9.585 28.544l21.945 44.452s-39.95 3.375-52.892 5.625-22.507 5.065-23.07 5.627-3.8 4.523 3.88 7.408c0 0 73.82 5.788 96.275-2.906 3.655-1.415 7.878-6.753 5.627-14.63l-18.568-64.708z" fill="#0a65c2"/><path d="M225.116 387.254s-1.653 2.756-1.103 6.063 1.103 3.307 3.308 3.307 5.032-.478 6.614 0c1.632.494 3.308 2.205 6.615 1.654s6.016-1.782 5.512-3.307c-.932-2.82-10.472-2.756-11.024-4.41s-.55-2.757-.55-2.757l-9.37-.55z" fill="#021867"/><path d="M124.876 289.144s18.346 33.437 48.987 30.008c40.5-4.532 65.833-12.38 65.833-12.38s-15.755 68.084-16.318 80.463l12.942 1.688 21.382-61.332c1.688-5.063 8.44-29.26 8.44-37.136s-7.878-11.253-10.69-11.253h-60.77s-12.66 17.724-46.42 17.724c0 0-18.603 1.5-23.386-7.783" fill="#1075fd"/><path d="M78.497 388.907c.197 1.452 1.103 3.308 4.4 3.858s6.614 0 6.614-1.653-4.4-3.858-4.4-4.96 1.102-3.307 1.102-4.4-3.355-7.97-3.355-7.97-7.118.254-7.118 2.458c0 0 .827 5.237 1.93 6.34s.613 4.756.827 6.34m178.048-151.585s-13.23 17.088-22.6 22.6-21.497-4.962-41.34-16.535l-.86-.506c-1.743 7.3-4.5 20.34-3.476 25.6.753 3.827 6.595 10.6 6.595 10.6-2.65 4.776-21.447 20.16-42.67 20.16s-26.522-6.897-26.522-6.897c-2.654-9.02-2.124-19.627 5.836-44.03s29.705-44.56 35.54-49.336c.056-.053.124-.1.184-.148 4.134-3.263 9.492-3.5 14.532-3.17 1.408.095 2.683.18 4.006.696 1.967.77 3.823 1.808 5.604 2.94 1.76 1.118 3.77 1.78 5.566 2.86.87.524 1.826 1.178 2.27 2.128.455.982.523 2.3.55 3.358.056 2.397-.24 4.805-.645 7.173l7.542 5.696L229.8 242.01c1.1 1.1 9.368-3.858 9.368-3.858l8.82-6.614s1.93-2.482 5.234-.828 3.3 6.613 3.3 6.613" fill="#021867"/></g></g></svg>